<svg fill="none" height="40" viewBox="0 0 66 40" width="66" xmlns="http://www.w3.org/2000/svg" xmlns:xlink="http://www.w3.org/1999/xlink"><filter id="a" color-interpolation-filters="sRGB" filterUnits="userSpaceOnUse" height="11.5771" width="11.5771" x="39.5322" y="14.2109"><feFlood flood-opacity="0" result="BackgroundImageFix"/><feBlend in="SourceGraphic" in2="BackgroundImageFix" mode="normal" result="shape"/><feGaussianBlur result="effect1_foregroundBlur_1703_64848" stdDeviation="2"/></filter><filter id="b" color-interpolation-filters="sRGB" filterUnits="userSpaceOnUse" height="11.5771" width="11.5771" x="27.6104" y="14.2109"><feFlood flood-opacity="0" result="BackgroundImageFix"/><feBlend in="SourceGraphic" in2="BackgroundImageFix" mode="normal" result="shape"/><feGaussianBlur result="effect1_foregroundBlur_1703_64848" stdDeviation="2"/></filter><filter id="c" color-interpolation-filters="sRGB" filterUnits="userSpaceOnUse" height="11.5771" width="11.5771" x="15.6865" y="14.2109"><feFlood flood-opacity="0" result="BackgroundImageFix"/><feBlend in="SourceGraphic" in2="BackgroundImageFix" mode="normal" result="shape"/><feGaussianBlur result="effect1_foregroundBlur_1703_64848" stdDeviation="2"/></filter><g filter="url(#a)"><circle cx="45.3208" cy="19.9995" fill="#ff6682" r="1.78857"/></g><g filter="url(#b)"><circle cx="33.3989" cy="19.9995" fill="#ff6682" r="1.78857"/></g><g filter="url(#c)"><circle cx="21.4751" cy="19.9995" fill="#ff6682" r="1.78857"/></g><g clip-rule="evenodd" fill="#000" fill-rule="evenodd"><path d="m21.4754 23.5757c1.9754 0 3.5769-1.6014 3.5769-3.5769s-1.6015-3.5769-3.5769-3.5769c-1.9755 0-3.577 1.6014-3.577 3.5769s1.6015 3.5769 3.577 3.5769zm-.0003-1.7876c.9878 0 1.7886-.8008 1.7886-1.7886s-.8008-1.7886-1.7886-1.7886-1.7886.8008-1.7886 1.7886.8008 1.7886 1.7886 1.7886z"/><path d="m33.3982 23.5757c1.9755 0 3.5769-1.6014 3.5769-3.5769s-1.6014-3.5769-3.5769-3.5769-3.5769 1.6014-3.5769 3.5769 1.6014 3.5769 3.5769 3.5769zm.0007-1.7876c.9878 0 1.7886-.8008 1.7886-1.7886s-.8008-1.7886-1.7886-1.7886-1.7885.8008-1.7885 1.7886.8007 1.7886 1.7885 1.7886z"/><path d="m45.3211 23.5757c1.9754 0 3.5769-1.6014 3.5769-3.5769s-1.6015-3.5769-3.5769-3.5769c-1.9755 0-3.577 1.6014-3.577 3.5769s1.6015 3.5769 3.577 3.5769zm-.0003-1.7876c.9878 0 1.7886-.8008 1.7886-1.7886s-.8008-1.7886-1.7886-1.7886-1.7886.8008-1.7886 1.7886.8008 1.7886 1.7886 1.7886z"/></g></svg>