<svg width="44" height="44" viewBox="0 0 44 44" fill="none" xmlns="http://www.w3.org/2000/svg">
<path fill-rule="evenodd" clip-rule="evenodd" d="M27.4999 14.667C30.5375 14.667 32.9999 17.1294 32.9999 20.167V23.8337C32.9999 26.8712 30.5375 29.3337 27.4999 29.3337H12.8333C9.79569 29.3337 7.33325 26.8712 7.33325 23.8337V20.167C7.33325 17.1294 9.79569 14.667 12.8333 14.667H27.4999ZM27.4999 16.5003H12.8333C10.9003 16.5003 9.31662 17.9961 9.17664 19.8933L9.16659 20.167V23.8337C9.16659 25.7667 10.6624 27.3503 12.5596 27.4903L12.8333 27.5003H27.4999C29.4329 27.5003 31.0166 26.0045 31.1565 24.1073L31.1666 23.8337V20.167C31.1666 18.234 29.6708 16.6504 27.7736 16.5104L27.4999 16.5003ZM23.8333 18.3337C24.8458 18.3337 25.6666 19.1545 25.6666 20.167V23.8337C25.6666 24.8462 24.8458 25.667 23.8333 25.667H12.8333C11.8207 25.667 10.9999 24.8462 10.9999 23.8337V20.167C10.9999 19.1545 11.8207 18.3337 12.8333 18.3337H23.8333ZM35.7499 18.3337C36.1999 18.3337 36.5742 18.6579 36.6518 19.0856L36.6666 19.2503V24.7503C36.6666 25.2566 36.2562 25.667 35.7499 25.667C35.2999 25.667 34.9256 25.3427 34.848 24.9151L34.8333 24.7503V19.2503C34.8333 18.7441 35.2437 18.3337 35.7499 18.3337Z" fill="#4FAEC1"/>
</svg>
