<svg fill="none" height="40" viewBox="0 0 66 40" width="66" xmlns="http://www.w3.org/2000/svg" xmlns:xlink="http://www.w3.org/1999/xlink"><filter id="a" color-interpolation-filters="sRGB" filterUnits="userSpaceOnUse" height="27.8477" width="50.0898" x="7.85352" y="5.57715"><feFlood flood-opacity="0" result="BackgroundImageFix"/><feBlend in="SourceGraphic" in2="BackgroundImageFix" mode="normal" result="shape"/><feGaussianBlur result="effect1_foregroundBlur_1703_64722" stdDeviation="2"/></filter><circle cx="18.3984" cy="19.5" r="2.5" stroke="#000" stroke-width="2"/><g filter="url(#a)"><path d="m44.2372 28.3802c4.9039 0 8.6612-3.9754 8.6612-8.8793s-3.7573-8.8793-8.6612-8.8793c0 0-2.6766.0635-3.7052.2248-7.8507 1.2315-23.8767 4.0257-24.3132 4.1596-1.9225.5898-3.3204 2.3791-3.3204 4.4949 0 2.1641 1.4624 3.9866 3.4528 4.5333.3974.1092 16.2621 2.886 23.7692 4.0636 1.3722.2152 4.1168.2824 4.1168.2824z" stroke="#ff6682" stroke-width="2.08925"/></g><circle cx="43.3984" cy="19.5" r="6.5" stroke="#000" stroke-width="2"/></svg>