<svg width="44" height="44" viewBox="0 0 44 44" fill="none" xmlns="http://www.w3.org/2000/svg">
<path fill-rule="evenodd" clip-rule="evenodd" d="M19.2499 6.41699C19.2499 4.89821 20.4811 3.66699 21.9999 3.66699C23.5187 3.66699 24.7499 4.89821 24.7499 6.41699C24.7499 6.73841 24.6948 7.04694 24.5934 7.33366H27.4999H28.4166C32.9729 7.33366 36.6666 11.0273 36.6666 15.5837V32.0837C36.6666 36.64 32.9729 40.3337 28.4166 40.3337H15.5833C11.0269 40.3337 7.33325 36.64 7.33325 32.0837V15.5837C7.33325 11.0273 11.0269 7.33366 15.5833 7.33366H16.4999H19.4064C19.3051 7.04694 19.2499 6.73841 19.2499 6.41699ZM16.5068 9.16699H15.5833C12.0394 9.16699 9.16659 12.0398 9.16659 15.5837V32.0837C9.16659 35.6275 12.0394 38.5003 15.5833 38.5003H28.4166C31.9604 38.5003 34.8333 35.6275 34.8333 32.0837V15.5837C34.8333 12.0398 31.9604 9.16699 28.4166 9.16699H27.4931C27.4084 10.1936 26.5484 11.0003 25.4999 11.0003H18.4999C17.4515 11.0003 16.5915 10.1936 16.5068 9.16699ZM21.9999 7.33366C22.5062 7.33366 22.9166 6.92325 22.9166 6.41699C22.9166 5.91073 22.5062 5.50033 21.9999 5.50033C21.4937 5.50033 21.0833 5.91073 21.0833 6.41699C21.0833 6.92325 21.4937 7.33366 21.9999 7.33366ZM30.2499 20.0497C30.7562 20.0497 31.1666 20.4601 31.1666 20.9664C31.1666 21.4164 30.8423 21.7907 30.4147 21.8683L30.2499 21.8831H21.0833C20.577 21.8831 20.1666 21.4727 20.1666 20.9664C20.1666 20.5164 20.4909 20.1421 20.9185 20.0645L21.0833 20.0497H30.2499ZM31.1666 28.417C31.1666 27.9107 30.7562 27.5003 30.2499 27.5003H21.0833L20.9185 27.5151C20.4909 27.5927 20.1666 27.967 20.1666 28.417C20.1666 28.9233 20.577 29.3337 21.0833 29.3337H30.2499L30.4147 29.3189C30.8423 29.2413 31.1666 28.867 31.1666 28.417ZM17.4166 28.417C17.4166 29.4295 16.5958 30.2503 15.5833 30.2503C14.5707 30.2503 13.7499 29.4295 13.7499 28.417C13.7499 27.4045 14.5707 26.5837 15.5833 26.5837C16.5958 26.5837 17.4166 27.4045 17.4166 28.417ZM18.998 18.5888C18.6326 18.2383 18.0523 18.2504 17.7019 18.6158L15.5924 20.8123L14.4145 19.5731L14.2903 19.4639C13.9395 19.2073 13.4448 19.23 13.1186 19.5399C12.7515 19.8886 12.7366 20.4688 13.0853 20.8358L15.5871 23.4694L19.025 19.8848L19.1284 19.7557C19.3684 19.3933 19.3227 18.9002 18.998 18.5888Z" fill="#4FAEC1"/>
</svg>
