<svg fill="none" height="40" viewBox="0 0 66 40" width="66" xmlns="http://www.w3.org/2000/svg" xmlns:xlink="http://www.w3.org/1999/xlink"><filter id="a" color-interpolation-filters="sRGB" filterUnits="userSpaceOnUse" height="16.6646" width="10.4639" x="30.8047" y="18.8555"><feFlood flood-opacity="0" result="BackgroundImageFix"/><feBlend in="SourceGraphic" in2="BackgroundImageFix" mode="normal" result="shape"/><feGaussianBlur result="effect1_foregroundBlur_1703_64770" stdDeviation="1"/></filter><filter id="b" color-interpolation-filters="sRGB" filterUnits="userSpaceOnUse" height="16.8574" width="10.4727" x="30.8047" y="6"><feFlood flood-opacity="0" result="BackgroundImageFix"/><feBlend in="SourceGraphic" in2="BackgroundImageFix" mode="normal" result="shape"/><feGaussianBlur result="effect1_foregroundBlur_1703_64770" stdDeviation="1"/></filter><g filter="url(#a)"><path clip-rule="evenodd" d="m32.8047 20.8555v12.6645l6.4638-6.1781z" fill="#ff6682" fill-rule="evenodd"/></g><g filter="url(#b)"><path clip-rule="evenodd" d="m32.8047 8v12.8572l6.4728-6.4977z" fill="#ff6682" fill-rule="evenodd"/></g><g fill="#000"><path clip-rule="evenodd" d="m30.8718 8.69992c0-.57802.6501-.88921 1.0959-.5753l.0922.07697 5.6783 5.57751c.2459.2415.2751.62.0864.894l-.081.0974-5.1658 5.1841 5.1658 5.1853c.2455.2465.2685.6296.0719.9016l-.0841.0964-5.6783 5.4285c-.4148.3965-1.0843.1485-1.1717-.3861l-.0096-.1188-.0012-9.3941-4.4409 4.4586c-.242.2429-.6184.2705-.891.0824l-.0969-.0806c-.2429-.242-.2705-.6184-.0824-.891l.0806-.0969 5.1652-5.1853-5.1652-5.1841c-.242-.243-.2683-.6194-.0792-.8913l.081-.0966c.243-.242.6194-.2683.8913-.0792l.0966.081 4.4409 4.4574zm1.396 12.92108v7.8039l3.983-3.8069zm0-11.2568v7.9227l3.9886-4.004z" fill-rule="evenodd"/><path d="m30.8718 8.69992.15.00002v-.00002zm1.0959-.5753.0966-.1155-.0102-.00715zm.0922.07697.1054-.10736-.0093-.00775zm5.6783 5.57751.1051-.107zm.0864.894.1158.0963.0077-.0112zm-.081.0974.1066.1063.0087-.0104zm-5.1658 5.1841-.1062-.1059-.1055.1059.1055.1058zm5.1658 5.1853-.1063.1059zm.0719.9016.1135.099.008-.0111zm-.0841.0964.1041.1088.009-.0102zm-5.6783 5.4285.1036.1084zm-1.1717-.3861-.1501.012.002.0122zm-.0096-.1188h-.1504l.0009.0119zm-.0012-9.3941.15-.0001v-.3631l-.2562.2573zm-4.4409 4.4586.1063.1058zm-.891.0824-.0963.1158.0111.0077zm-.0969-.0806-.1063.1067.0104.0086zm-.0824-.891-.1158-.0963-.0077.0111zm.0806-.0969-.1067-.1063-.0086.0104zm5.1652-5.1853.1063.1058.1054-.1058-.1054-.1059zm-5.1652-5.1841-.1062.1058zm-.0792-.8913-.1154-.0968-.0077.0112zm.081-.0966-.1063-.1067-.0086.0103zm.8913-.0792.0968-.1154-.0112-.0077zm.0966.081.1067-.1063-.0103-.0086zm4.4409 4.4574-.1062.1059.2562.2571v-.363zm1.3972 3.3792.1063-.1059-.2563-.2571v.363zm0 7.8039h-.15v.3509l.2537-.2424zm3.983-3.8069.1037.1084.1107-.1058-.1081-.1085zm-3.983-15.2538.1052-.107-.2552-.2507v.3577zm0 7.9227h-.15v.3631l.2563-.2573zm3.9886-4.004.1063.1059.1066-.107-.1078-.1059zm-5.2346-5.58298c0-.45264.5099-.69882.8596-.45265l.1727-.2453c-.5421-.38166-1.3323-.00544-1.3323.69795zm.8498-.46019.0921.07696.1923-.23021-.0921-.07697zm.0831.06887 5.6784 5.5775.2102-.214-5.6783-5.57753zm5.6784 5.5775c.193.1896.2161.4868.0679.7019l.2471.1702c.2293-.333.194-.7926-.1048-1.0861zm.0761.6911-.081.0974.2307.1918.081-.0974zm-.0719.0874-5.1657 5.1841.2125.2117 5.1657-5.184zm-5.1657 5.3958 5.1657 5.1854.2125-.2117-5.1657-5.1854zm5.1657 5.1854c.1927.1934.2109.4943.0566.7079l.2431.1757c.239-.3306.2113-.7958-.0872-1.0953zm.0651.6971-.084.0964.2261.1972.084-.0964zm-.0746.0865-5.6784 5.4285.2073.2169 5.6784-5.4285zm-5.6784 5.4285c-.3248.3106-.8514.1174-.92-.3018l-.2961.0484c.1063.65.9187.9528 1.4234.4703zm-.9185-.2896-.0095-.1188-.2991.0239.0095.1189zm-.0091-.1069-.0012-9.3941-.3.0001.0012 9.3941zm-.2574-9.4999-4.441 4.4586.2126.2117 4.4409-4.4586zm-4.441 4.4586c-.1899.1907-.4855.2125-.6995.0649l-.1704.2469c.3312.2285.7883.1952 1.0825-.1001zm-.6887.073-.0969-.0806-.1919.2306.0969.0806zm-.087-.0716c-.1906-.1899-.2125-.4855-.0649-.6995l-.2469-.1704c-.2285.3312-.1951.7883.1001 1.0824zm-.073-.6887.0806-.0969-.2306-.1919-.0806.0969zm.0716-.087 5.1652-5.1854-.2126-.2117-5.1652 5.1854zm5.1652-5.3971-5.1652-5.1841-.2125.2117 5.1651 5.1841zm-5.1652-5.1841c-.19-.1906-.2108-.4863-.0623-.6997l-.2463-.1713c-.2298.3303-.1981.7875.0961 1.0827zm-.0705-.689.081-.0966-.2299-.1928-.081.0966zm.0719-.0867c.1906-.19.4863-.2108.6998-.0623l.1712-.2463c-.3303-.2298-.7875-.1981-1.0827.0961zm.689-.0705.0966.081.1928-.2299-.0966-.081zm.0867.0719 4.441 4.4574.2125-.2118-4.4409-4.4573zm4.6972 4.3515.0012-9.54186-.3-.00004-.0012 9.5419zm1.0972 3.3792v7.8039h.3v-7.8039zm.2537 7.9124 3.983-3.807-.2073-.2169-3.983 3.807zm3.9856-4.0213-3.983-3.997-.2125.2118 3.983 3.9969zm-4.2393-15.1479v7.9227h.3v-7.9227zm.2563 8.0285 3.9886-4.0039-.2125-.2118-3.9886 4.004zm3.9874-4.2168-3.9885-3.9187-.2103.214 3.9886 3.9187z"/></g></svg>