<svg fill="none" height="40" viewBox="0 0 66 40" width="66" xmlns="http://www.w3.org/2000/svg" xmlns:xlink="http://www.w3.org/1999/xlink"><filter id="a" color-interpolation-filters="sRGB" filterUnits="userSpaceOnUse" height="18.6597" width="15.043" x="39.0732" y="13.6641"><feFlood flood-opacity="0" result="BackgroundImageFix"/><feBlend in="SourceGraphic" in2="BackgroundImageFix" mode="normal" result="shape"/><feGaussianBlur result="effect1_foregroundBlur_1703_64884" stdDeviation="1"/></filter><g stroke="#000" stroke-linecap="round" stroke-linejoin="round" stroke-width="2"><ellipse cx="21.0527" cy="24.2984" rx="7.15428" ry="7.28081"/><ellipse cx="46.0614" cy="24.2897" rx="7.16297" ry="7.28966"/><path d="m36.8984 7h3.0617l6.1235 16.6179"/><path d="m22.8984 13h3.1403l3.9252 10.8782"/><path d="m20.8984 24.3476h12.9231l8.0769-9.6171"/></g><path clip-rule="evenodd" d="m41.7438 9.38867h7.3389c.5304 0 .9197.49855.791 1.01323l-.8154 3.2617c-.0904.3616-.4146.6159-.7874.6176l-5.4065.0247c-.3506.0016-.663-.2211-.7758-.5531l-1.1169-3.2863c-.1797-.5289.2135-1.07783.7721-1.07783zm5.8843 3.26483.4093-1.6341h-5.1551l.561 1.652z" fill="#000" fill-rule="evenodd"/><path d="m53.2305 31.1938-7.7666-16.8872h-5.1496s-.5244.2084-.2179.8824c.3065.6741 7.2305 16.005 7.2305 16.005z" fill="#fff" stroke="#000" stroke-width="2"/><g filter="url(#a)"><path d="m52.1162 30.3237-6.4827-14.6596h-4.2984s-.4378.1808-.1819.766c.2558.5851 6.0353 13.8938 6.0353 13.8938z" fill="#ff6682"/></g><path d="m53.2305 31.1938-7.7666-16.8872h-5.1496s-.5244.2084-.2179.8824c.3065.6741 7.2305 16.005 7.2305 16.005z" stroke="#000" stroke-width="2"/><path d="m34.0386 31.8105h22.1421c.2761 0 .5.2239.5.5 0 .2762-.2239.5-.5.5h-22.1421c-.2762 0-.5-.2238-.5-.5 0-.2761.2238-.5.5-.5z" fill="#000"/></svg>