<svg width="28" height="27" viewBox="0 0 28 27" fill="none" xmlns="http://www.w3.org/2000/svg">
<path fill-rule="evenodd" clip-rule="evenodd" d="M15.0476 0.904727C15.0476 0.483939 14.7065 0.142822 14.2857 0.142822C13.8649 0.142822 13.5238 0.483939 13.5238 0.904727V3.95235C13.5238 4.37313 13.8649 4.71425 14.2857 4.71425C14.7065 4.71425 15.0476 4.37313 15.0476 3.95235V0.904727ZM20.3809 13.8571C20.3809 15.7671 19.5042 17.4711 18.1255 18.5912C16.9853 19.5173 15.8095 20.9955 15.8095 22.9011V23C15.8095 23.8415 15.1273 24.5238 14.2857 24.5238C13.4441 24.5238 12.7619 23.8415 12.7619 23V22.9011C12.7619 20.9955 11.5861 19.5173 10.4459 18.5912C9.06717 17.4711 8.19046 15.7671 8.19046 13.8571C8.19046 10.4908 10.9194 7.76187 14.2857 7.76187C17.652 7.76187 20.3809 10.4908 20.3809 13.8571ZM17.3333 22.9011C17.3333 21.6505 18.1155 20.5624 19.0862 19.7739C20.8059 18.3769 21.9047 16.2453 21.9047 13.8571C21.9047 9.64922 18.4936 6.23806 14.2857 6.23806C10.0778 6.23806 6.66665 9.64922 6.66665 13.8571C6.66665 16.2453 7.76548 18.3769 9.48515 19.7739C10.4559 20.5624 11.2381 21.6505 11.2381 22.9011V23C11.2381 24.6831 12.6025 26.0476 14.2857 26.0476C15.9689 26.0476 17.3333 24.6831 17.3333 23V22.9011ZM23.9837 4.15962C24.2812 4.45716 24.2812 4.93957 23.9837 5.23712L21.8287 7.39211C21.5311 7.68965 21.0487 7.68965 20.7512 7.39211C20.4536 7.09457 20.4536 6.61216 20.7512 6.31461L22.9062 4.15962C23.2037 3.86208 23.6861 3.86208 23.9837 4.15962ZM6.74386 7.39214C7.0414 7.68968 7.52381 7.68968 7.82135 7.39214C8.1189 7.09459 8.1189 6.61218 7.82135 6.31464L5.66636 4.15965C5.36882 3.8621 4.88641 3.8621 4.58887 4.15965C4.29132 4.45719 4.29132 4.9396 4.58887 5.23714L6.74386 7.39214ZM28 13.8571C28 14.2779 27.6589 14.619 27.2381 14.619H24.1905C23.7697 14.619 23.4286 14.2779 23.4286 13.8571C23.4286 13.4363 23.7697 13.0952 24.1905 13.0952H27.2381C27.6589 13.0952 28 13.4363 28 13.8571ZM4.38094 14.619C4.80172 14.619 5.14284 14.2779 5.14284 13.8571C5.14284 13.4363 4.80172 13.0952 4.38094 13.0952H1.33332C0.912528 13.0952 0.571411 13.4363 0.571411 13.8571C0.571411 14.2779 0.912528 14.619 1.33332 14.619H4.38094Z" fill="#2A3039"/>
</svg>
