<svg fill="none" height="40" viewBox="0 0 66 40" width="66" xmlns="http://www.w3.org/2000/svg" xmlns:xlink="http://www.w3.org/1999/xlink"><filter id="a" color-interpolation-filters="sRGB" filterUnits="userSpaceOnUse" height="18.0933" width="34.0645" x="10.6992" y="3.44922"><feFlood flood-opacity="0" result="BackgroundImageFix"/><feBlend in="SourceGraphic" in2="BackgroundImageFix" mode="normal" result="shape"/><feGaussianBlur result="effect1_foregroundBlur_1703_64726" stdDeviation="2"/></filter><g filter="url(#a)"><path d="m40.2637 11.4145s-7.6352 2.4775-9.1289 2.4775-11.4548-3.0982-11.4548-3.0982l-1.1508-1.76829s-.7423-1.66855-2.5177-.85062c-1.7755.81794-.378 3.86091 1.6684 4.38581 2.0463.5249 11.969 3.4868 13.4549 3.6313s3.751-.6818 4.5926-.5222.9964 1.3727.9964 1.3727z" fill="#ff6682"/><path d="m40.2637 11.4145s-7.6352 2.4775-9.1289 2.4775-11.4548-3.0982-11.4548-3.0982l-1.1508-1.76829s-.7423-1.66855-2.5177-.85062c-1.7755.81794-.378 3.86091 1.6684 4.38581 2.0463.5249 11.969 3.4868 13.4549 3.6313s3.751-.6818 4.5926-.5222.9964 1.3727.9964 1.3727z" stroke="#ff6682" stroke-linecap="round" stroke-linejoin="round"/></g><path d="m51.7817 11.7144h-3.9052l-6.8655-1.5596-4.2028 6.8905.023 3.1094v8.417h4.1798s-.2887-6.6682 0-8.417c.2888-1.7489.8371-2.0468 1.7257-3.1094.8886-1.0625 2.446-2.4108 4.3865-2.4108h4.6585z" stroke="#000" stroke-linecap="round" stroke-linejoin="round" stroke-width="1.39019"/><path d="m36.585 20.4917h-18.7154c-1.5356 0-2.7804 1.2448-2.7804 2.7804v1.9627c0 1.5356 1.2448 2.7804 2.7804 2.7804h18.7154z" fill="#000"/></svg>