<svg width="24" height="24" viewBox="0 0 24 24" fill="none" xmlns="http://www.w3.org/2000/svg">
<path fill-rule="evenodd" clip-rule="evenodd" d="M15.2301 2.71122L16.8531 3.3832C17.189 3.52225 17.3682 3.88178 17.2899 4.22629L17.2586 4.32896C17.1014 4.73677 17.1992 5.19897 17.5083 5.50804L18.4916 6.49131C18.7698 6.76952 19.172 6.87669 19.5471 6.78078L19.6709 6.74124C20.0441 6.59748 20.4638 6.77757 20.6168 7.14709L21.2885 8.7695C21.5796 9.47277 21.4703 10.2734 21.0127 10.8706L20.9009 11.0048C20.4236 11.5319 20.3916 12.3166 20.8052 12.8781L20.9006 12.9948C21.4506 13.6026 21.6014 14.4727 21.288 15.2301L20.6164 16.8528C20.4774 17.1887 20.1179 17.368 19.7734 17.2897L19.6707 17.2584C19.2629 17.1011 18.8007 17.199 18.4916 17.508L17.5083 18.4913C17.2301 18.7695 17.123 19.1718 17.2189 19.5468L17.2584 19.6706C17.4022 20.0438 17.2221 20.4636 16.8526 20.6166L15.2302 21.2882C14.5269 21.5794 13.7263 21.4701 13.129 21.0125L12.9948 20.9006C12.4677 20.4233 11.6831 20.3914 11.1216 20.8049L11.0048 20.9004C10.3971 21.4504 9.52691 21.6012 8.76954 21.2877L7.14684 20.6161C6.81098 20.4771 6.63168 20.1176 6.70995 19.7731L6.74126 19.6705C6.89854 19.2626 6.80068 18.8004 6.49161 18.4914L5.50835 17.5081C5.23013 17.2299 4.82789 17.1227 4.45283 17.2186L4.32903 17.2582C3.95583 17.4019 3.53607 17.2218 3.38309 16.8523L2.71141 15.2299C2.42026 14.5266 2.52956 13.726 2.98719 13.1288L3.09913 12.9945C3.57639 12.4674 3.60834 11.6829 3.19489 11.1213L3.09947 11.0046C2.54953 10.3969 2.39874 9.52675 2.71212 8.7694L3.38359 7.14661C3.52256 6.81075 3.88206 6.63145 4.22654 6.70971L4.3292 6.74102C4.73702 6.8983 5.19922 6.80044 5.50829 6.49137L6.49155 5.5081C6.76977 5.22989 6.87694 4.82765 6.78103 4.45259L6.74149 4.32878C6.59772 3.95558 6.77781 3.53582 7.14733 3.38284L8.76974 2.71117C9.47301 2.42001 10.2736 2.52931 10.8709 2.98694L11.005 3.09871C11.5321 3.57602 12.3168 3.60784 12.8782 3.19417L12.9949 3.09871C13.6025 2.5485 14.4728 2.39764 15.2301 2.71122ZM14.8476 3.63513C14.4473 3.46939 13.9873 3.54913 13.6661 3.83994C12.7204 4.69634 11.2795 4.69634 10.3337 3.83994C10.0482 3.58143 9.65306 3.48969 9.28761 3.5889L9.15224 3.6351L7.75094 4.21469L7.76862 4.28462C7.9056 4.92258 7.73877 5.59301 7.31099 6.09368L7.19864 6.21519L6.21537 7.19845C5.70513 7.7087 4.97579 7.91676 4.28467 7.76814L4.21594 7.74969L3.63612 9.15172C3.48883 9.50768 3.53546 9.91075 3.75187 10.2216L3.84094 10.3336C4.65611 11.2344 4.6947 12.584 3.95686 13.5274L3.84036 13.6657L3.75111 13.7778C3.56172 14.0497 3.50234 14.3922 3.58914 14.712L3.63534 14.8474L4.21494 16.2477L4.28487 16.231C4.92283 16.094 5.59326 16.2608 6.09392 16.6886L6.21543 16.801L7.1987 17.7842C7.70894 18.2945 7.917 19.0238 7.76838 19.7149L7.74994 19.7837L9.15194 20.3637C9.50788 20.511 9.91095 20.4644 10.2218 20.248L10.3338 20.1589C11.2324 19.3456 12.5776 19.3051 13.4941 20.0143L13.7372 20.2187C14.0187 20.4344 14.3846 20.5028 14.7225 20.4076L14.8476 20.3643L16.2479 19.7837L16.2312 19.7147C16.0943 19.0768 16.2611 18.4064 16.6889 17.9057L16.8012 17.7842L17.7845 16.8009C18.2947 16.2907 19.0241 16.0826 19.7152 16.2312L19.7839 16.2487L20.364 14.8477C20.5113 14.4917 20.4646 14.0887 20.2482 13.7778L20.1591 13.6658C19.3459 12.7673 19.3054 11.4221 20.0145 10.5055L20.2189 10.2624C20.4346 9.98087 20.503 9.61499 20.4079 9.27715L20.3645 9.15199L19.7839 7.75069L19.715 7.76838C19.077 7.90535 18.4066 7.73852 17.9059 7.31075L17.7844 7.19839L16.8012 6.21513C16.2909 5.70488 16.0829 4.97555 16.2315 4.28443L16.2489 4.21469L14.8476 3.63513ZM12 8.99969C13.6569 8.99969 15 10.3428 15 11.9997C15 13.6565 13.6569 14.9997 12 14.9997C10.3431 14.9997 9 13.6565 9 11.9997C9 10.3428 10.3431 8.99969 12 8.99969ZM12 9.99969C10.8954 9.99969 10 10.8951 10 11.9997C10 13.1043 10.8954 13.9997 12 13.9997C13.1046 13.9997 14 13.1043 14 11.9997C14 10.8951 13.1046 9.99969 12 9.99969Z" fill="black"/>
</svg>
