<svg fill="none" height="40" viewBox="0 0 66 40" width="66" xmlns="http://www.w3.org/2000/svg" xmlns:xlink="http://www.w3.org/1999/xlink"><filter id="a" color-interpolation-filters="sRGB" filterUnits="userSpaceOnUse" height="25.8301" width="29.4717" x="16.2627" y="13.4243"><feFlood flood-opacity="0" result="BackgroundImageFix"/><feBlend in="SourceGraphic" in2="BackgroundImageFix" mode="normal" result="shape"/><feGaussianBlur result="effect1_foregroundBlur_1703_64837" stdDeviation="2"/></filter><path clip-rule="evenodd" d="m41.3212 4.22119c3.7861 0 6.8553 3.00974 6.8553 6.72241 0 1.9482-1.4156 4.9315-4.2468 8.95-.2047.2904-.4549.5447-.7406.7527-1.3648.9933-3.2354.7431-4.3057-.531l-.1707-.2217-.3613-.5183c-2.5904-3.7577-3.8856-6.5682-3.8856-8.4317 0-3.71267 3.0693-6.72241 6.8554-6.72241zm-.0005 1.73739c-2.853 0-5.1415 2.2441-5.1415 4.98052 0 1.3372 1.07 3.7199 3.2511 6.9566l.6753.9792c.4805.6821 1.4141.8391 2.0852.3506.1331-.0968.2497-.2153.345-.3506 2.6344-3.7391 3.9264-6.462 3.9264-7.9358 0-2.73642-2.2884-4.98052-5.1415-4.98052z" fill="#000" fill-rule="evenodd"/><path d="m43.9297 19.8936.1675.118zm-.7406.7527-.1206-.1657zm-4.3057-.531-.1626.1252.0057.0067zm-.1707-.2217-.1684.1173.0059.0077zm-.3613-.5183-.1687.1163.0006.0009zm1.0789-1.4796-.17.1145.0013.0019zm.6753.9792-.1687.1164.0011.0017zm2.0852.3506.1206.1658zm.345-.3506-.1676-.118zm-1.2146-14.44875c3.6767 0 6.6504 2.92174 6.6504 6.51745h.4099c0-3.82963-3.1648-6.92737-7.0603-6.92737zm6.6504 6.51745c0 .9296-.3393 2.13-1.0419 3.6107-.7011 1.4774-1.7558 3.2174-3.1676 5.2212l.3351.2361c1.4195-2.0146 2.4882-3.7756 3.2028-5.2815.713-1.5026 1.0815-2.7679 1.0815-3.7865zm-4.2095 8.8319c-.1917.2722-.4261.5104-.6936.7051l.2412.3314c.304-.2213.57-.4917.7875-.8004zm-.6936.7051c-1.2765.929-3.0261.6958-4.0282-.4971l-.3138.2637c1.1385 1.3553 3.13 1.6224 4.5832.5648zm-4.0227-.4903-.1707-.2218-.3249.2501.1708.2218zm-.165-.2139-.3612-.5183-.3363.2344.3612.5183zm-.3606-.5175c-1.2914-1.8732-2.2559-3.5047-2.8968-4.8956-.6424-1.3939-.9526-2.5309-.9526-3.4197h-.4099c0 .9747.3373 2.1747.9902 3.5913.6542 1.4196 1.6325 3.0723 2.9316 4.9567zm-3.8494-8.3153c0-3.59571 2.9737-6.51745 6.6504-6.51745v-.40992c-3.8955 0-7.0603 3.09774-7.0603 6.92737zm6.6499-5.18999c-2.9608 0-5.3465 2.33049-5.3465 5.18549h.41c0-2.61784 2.1912-4.77556 4.9365-4.77556zm-5.3465 5.18549c0 .7141.283 1.6771.8266 2.8521.5462 1.1804 1.3652 2.5951 2.4595 4.219l.34-.229c-1.0868-1.6128-1.8933-3.0078-2.4274-4.1622-.5367-1.1598-.7887-2.0568-.7887-2.6799zm3.2874 7.073.6753.9792.3374-.2328-.6753-.9792zm.6764.9809c.5459.7747 1.609.9546 2.3734.3983l-.2412-.3315c-.5777.4205-1.3818.2864-1.797-.3029zm2.3734.3983c.1514-.1102.2838-.2448.3919-.3983l-.3351-.2361c-.0824.117-.1831.2193-.298.3029zm.3919-.3983c1.321-1.875 2.3091-3.5001 2.9677-4.8453.6554-1.3387.9962-2.4229.9962-3.2086h-.4099c0 .6882-.3053 1.7023-.9545 3.0283-.646 1.3194-1.6212 2.9253-2.9346 4.7895zm3.9639-8.0539c0-2.855-2.3857-5.18549-5.3465-5.18549v.40993c2.7453 0 4.9366 2.15772 4.9366 4.77556z" fill="#000"/><g filter="url(#a)"><path d="m24.1195 18.3802 2.8194 4.3162c1.6389 2.5091 4.2511 4.1796 7.1706 4.6039l.4401.0543c2.6129.2647 4.9679 1.7161 6.4067 3.9486l.4376.6789c.2219.3443.3401.7469.3401 1.1584 0 1.1675-.9312 2.114-2.08 2.114h-13.5628c-3.219 0-5.8285-2.6522-5.8285-5.9239v-9.7676c0-.7165.353-1.3853.9403-1.7816.968-.6532 2.2738-.3851 2.9165.5988z" fill="#ff6682"/></g><g fill="#000"><path clip-rule="evenodd" d="m41.3193 9.44531c.9465 0 1.7139.77989 1.7139 1.74189s-.7674 1.7419-1.7139 1.7419-1.7138-.7799-1.7138-1.7419.7673-1.74189 1.7138-1.74189z" fill-rule="evenodd" stroke="#000" stroke-width=".409927"/><path clip-rule="evenodd" d="m19.041 17.282c0-1.3486.6645-2.6075 1.7699-3.3535 1.8223-1.2296 4.2802-.7249 5.49 1.1272l3.0105 4.6087c1.5531 2.3777 4.0746 3.9209 6.8687 4.204l.4486.0549c3.1252.449 5.9185 2.2444 7.656 4.9402l.4672.7249c.4198.6513.6433 1.4129.6433 2.1914 0 2.2087-1.7616 3.9992-3.9347 3.9992h-14.4821c-4.3837 0-7.9374-3.6118-7.9374-8.0673zm8.8421 3.3412-3.0105-4.6088c-.6862-1.0506-2.0805-1.3369-3.1142-.6394-.6271.4232-1.004 1.1373-1.004 1.9023v10.4297c0 3.4934 2.7863 6.3254 6.2235 6.3254h14.4821c1.2266 0 2.2209-1.0106 2.2209-2.2573 0-.4394-.1262-.8693-.3631-1.2369l-.4672-.7249c-1.5364-2.3838-4.051-3.9336-6.841-4.2163l-.4699-.0579c-3.1174-.4531-5.9066-2.2368-7.6566-4.9159z" fill-rule="evenodd"/><path d="m20.8109 13.9285-.1146-.1699zm5.49 1.1272-.1716.112zm3.0105 4.6087.1716-.1121zm6.8687 4.204.0249-.2035-.0042-.0004zm.4486.0549.0292-.2029-.0043-.0005zm7.656 4.9402.1723-.1111zm.4672.7249-.1723.1111zm-19.8793-13.574-.1716.1121zm3.0105 4.6088-.1716.112zm-6.1247-5.2482.1146.1699zm21.5594 15.1632-.1723.1111zm-.4672-.7249.1723-.1111zm-6.841-4.2163-.025.2035.0044.0005zm-.4699-.0579-.0295.2029.0044.0005zm-14.8434-11.7805c-1.1627.7846-1.8602 2.1076-1.8602 3.5234h.4099c0-1.2814.6314-2.4763 1.6796-3.1836zm5.7762 1.185c-1.2716-1.9468-3.8581-2.4792-5.7762-1.185l.2293.3398c1.7264-1.1649 4.0558-.688 5.2037 1.0693zm3.0105 4.6087-3.0105-4.6087-.3432.2241 3.0105 4.6088zm6.7178 4.1122c-2.7318-.2767-5.1981-1.7857-6.7178-4.1122l-.3432.2242c1.5865 2.4288 4.1631 4.0064 7.0197 4.2958zm.4528.0554-.4486-.0549-.0498.4069.4486.0549zm7.8034 5.0325c-1.7693-2.7451-4.6146-4.5745-7.7991-5.0319l-.0583.4057c3.0657.4404 5.8072 2.2019 7.5128 4.8483zm.4672.725-.4672-.725-.3446.2221.4672.725zm.676 2.3024c0-.8177-.2348-1.6179-.676-2.3024l-.3446.2221c.3983.6179.6107 1.341.6107 2.0803zm-4.1397 4.2042c2.2894 0 4.1397-1.8854 4.1397-4.2042h-.4099c0 2.0987-1.673 3.7942-3.7298 3.7942zm-14.4821 0h14.4821v-.41h-14.4821zm-8.1423-8.2723c0 4.5655 3.6423 8.2723 8.1423 8.2723v-.41c-4.2674 0-7.7324-3.5169-7.7324-7.8623zm0-10.4297v10.4297h.4099v-10.4297zm5.8649-1.1555 3.0105 4.6087.3432-.2241-3.0105-4.6088zm-2.828-.5816c.9379-.6328 2.2036-.3743 2.828.5816l.3432-.2242c-.7481-1.1453-2.2709-1.4593-3.4005-.6972zm-.9137 1.7324c0-.6978.3439-1.3479.9137-1.7324l-.2293-.3398c-.6843.4618-1.0943 1.24-1.0943 2.0722zm0 10.4297v-10.4297h-.4099v10.4297zm6.0186 6.1204c-3.3208 0-6.0186-2.737-6.0186-6.1204h-.4099c0 3.6035 2.875 6.5304 6.4285 6.5304zm14.4821 0h-14.4821v.41h14.4821zm2.016-2.0523c0 1.1366-.9057 2.0523-2.016 2.0523v.41c1.3429 0 2.4259-1.1056 2.4259-2.4623zm-.3305-1.1258c.2155.3343.3305.7256.3305 1.1258h.4099c0-.4786-.1374-.947-.3958-1.3479zm-.4672-.725.4672.725.3446-.2221-.4672-.725zm-6.6893-4.1233c2.7271.2762 5.1863 1.7913 6.6893 4.1233l.3446-.2221c-1.5697-2.4355-4.1398-4.0201-6.9926-4.3091zm-.4744-.0585.47.058.0501-.4069-.47-.0579zm-7.8031-5.0073c1.7818 2.7279 4.6225 4.5451 7.7987 5.0067l.059-.4056c-3.0586-.4446-5.7963-2.1948-7.5145-4.8252z"/></g><path d="m24.8712 16.0226 3.0104 4.6088c1.7501 2.6791 4.5392 4.4628 7.6566 4.9159l.47.058c2.79.2826 5.3046 1.8324 6.8409 4.2162l.4673.7249c.2369.3676.3631.7975.3631 1.2369 0 1.2467-.9944 2.2573-2.2209 2.2573h-14.4822c-3.4371 0-6.2235-2.8319-6.2235-6.3253v-10.4297c0-.765.377-1.4792 1.004-1.9023 1.0337-.6975 2.428-.4113 3.1143.6393z" stroke="#000" stroke-width=".409927"/></svg>