<svg width="24" height="24" viewBox="0 0 24 24" fill="none" xmlns="http://www.w3.org/2000/svg">
<path fill-rule="evenodd" clip-rule="evenodd" d="M16 6H6C4.34315 6 3 7.34315 3 9V15C3 16.6569 4.34315 18 6 18H16C17.6569 18 19 16.6569 19 15V9C19 7.34315 17.6569 6 16 6ZM6 5C3.79086 5 2 6.79086 2 9V15C2 17.2091 3.79086 19 6 19H16C18.2091 19 20 17.2091 20 15V9C20 6.79086 18.2091 5 16 5H6ZM21.5 9C21.7761 9 22 9.22386 22 9.5V14.5C22 14.7761 21.7761 15 21.5 15C21.2239 15 21 14.7761 21 14.5V9.5C21 9.22386 21.2239 9 21.5 9ZM5.5 8C5.22386 8 5 8.22386 5 8.5V15.5C5 15.7761 5.22386 16 5.5 16C5.77614 16 6 15.7761 6 15.5V8.5C6 8.22386 5.77614 8 5.5 8Z" fill="#2A3039"/>
</svg>
