<svg width="24" height="24" viewBox="0 0 24 24" fill="none" xmlns="http://www.w3.org/2000/svg">
<path d="M21.5 9.5V14.5" stroke="#2A3039" stroke-linecap="round"/>
<path d="M2.5 9C2.5 7.067 4.067 5.5 6 5.5H16C17.933 5.5 19.5 7.067 19.5 9V15C19.5 16.933 17.933 18.5 16 18.5H6C4.067 18.5 2.5 16.933 2.5 15V9Z" stroke="#2A3039"/>
<rect x="5" y="8" width="11" height="8" rx="2" fill="#2A3039"/>
<path fill-rule="evenodd" clip-rule="evenodd" d="M16 6H6C4.34315 6 3 7.34315 3 9V15C3 16.6569 4.34315 18 6 18H16C17.6569 18 19 16.6569 19 15V9C19 7.34315 17.6569 6 16 6ZM6 5C3.79086 5 2 6.79086 2 9V15C2 17.2091 3.79086 19 6 19H16C18.2091 19 20 17.2091 20 15V9C20 6.79086 18.2091 5 16 5H6ZM21.5 9C21.7761 9 22 9.22386 22 9.5V14.5C22 14.7761 21.7761 15 21.5 15C21.2239 15 21 14.7761 21 14.5V9.5C21 9.22386 21.2239 9 21.5 9ZM7 8C5.89543 8 5 8.89543 5 10V14C5 15.1046 5.89543 16 7 16H14C15.1046 16 16 15.1046 16 14V10C16 8.89543 15.1046 8 14 8H7Z" fill="#2A3039"/>
</svg>
