<svg width="16" height="21" viewBox="0 0 16 21"  xmlns="http://www.w3.org/2000/svg">
<path fill-rule="evenodd" clip-rule="evenodd" d="M3 5.5C3 2.73858 5.23858 0.5 8 0.5C10.7614 0.5 13 2.73858 13 5.5V9.5H13.5C14.8807 9.5 16 10.6193 16 12V18C16 19.3807 14.8807 20.5 13.5 20.5H2.5C1.11929 20.5 0 19.3807 0 18V12C0 10.6193 1.11929 9.5 2.5 9.5H3V5.5ZM12 5.5V9.5H4V5.5C4 3.29086 5.79086 1.5 8 1.5L8.19964 1.5049C10.316 1.60892 12 3.3578 12 5.5ZM2.5 10.5H3H13H13.5C14.3284 10.5 15 11.1716 15 12V18C15 18.8284 14.3284 19.5 13.5 19.5H2.5C1.67157 19.5 1 18.8284 1 18V12C1 11.1716 1.67157 10.5 2.5 10.5ZM8.49894 14.8668C8.79843 14.6941 9 14.3706 9 14C9 13.4477 8.55229 13 8 13C7.44772 13 7 13.4477 7 14C7 14.3664 7.19704 14.6867 7.49093 14.8609L6.98535 17H8.98535L8.49894 14.8668Z" />
</svg>
