<svg width="24" height="24" viewBox="0 0 24 24" fill="none" xmlns="http://www.w3.org/2000/svg">
<path fill-rule="evenodd" clip-rule="evenodd" d="M10.5 3.5C10.5 3.22386 10.2761 3 10 3H7.5L7.28816 3.0049C4.90124 3.11551 3 5.08573 3 7.5V16.5L3.0049 16.7118C3.11551 19.0988 5.08573 21 7.5 21H10L10.0899 20.9919C10.3231 20.9496 10.5 20.7455 10.5 20.5C10.5 20.2239 10.2761 20 10 20H7.5L7.30796 19.9948C5.46428 19.8951 4 18.3686 4 16.5V7.5L4.00518 7.30796C4.10487 5.46428 5.63144 4 7.5 4H10L10.0899 3.99194C10.3231 3.94961 10.5 3.74546 10.5 3.5ZM14.1452 18.3816C14.3181 18.5558 14.5874 18.576 14.7828 18.4417L14.8523 18.3841L20.8523 12.4277C21.0265 12.2548 21.0467 11.9854 20.9124 11.79L20.8548 11.7206L14.8548 5.67702C14.6603 5.48106 14.3437 5.47991 14.1477 5.67447C13.9735 5.8474 13.9533 6.11676 14.0876 6.31211L14.1452 6.38157L19.2548 11.5293H10C9.72386 11.5293 9.5 11.7532 9.5 12.0293C9.5 12.2748 9.67688 12.4789 9.91012 12.5212L10 12.5293H19.33L14.1477 17.6745C13.9735 17.8474 13.9533 18.1167 14.0876 18.3121L14.1452 18.3816Z" fill="black"/>
</svg>
