<svg width="233" height="277" viewBox="0 0 233 277" fill="none" xmlns="http://www.w3.org/2000/svg">
<path d="M129.545 227.353C129.469 227.329 129.386 227.329 129.31 227.354C129.233 227.379 129.167 227.427 129.119 227.492C128.108 228.877 126.623 229.509 123.935 229.509C120.838 229.509 118.596 227.909 117.794 224.709H136.277C136.376 224.709 136.471 224.671 136.542 224.603C136.613 224.535 136.655 224.442 136.66 224.344C136.695 223.589 136.695 223.192 136.695 222.311C136.695 214.846 131.463 209.193 123.881 209.193C116.299 209.193 110.961 214.846 110.961 222.311C110.961 229.828 116.139 235.427 124.095 235.427C128.329 235.427 132.795 233.722 135.012 229.61C135.04 229.56 135.057 229.505 135.06 229.448C135.064 229.391 135.056 229.334 135.035 229.281C135.014 229.228 134.982 229.181 134.94 229.142C134.899 229.103 134.849 229.073 134.795 229.056L129.545 227.353ZM117.748 219.8C118.442 217.03 120.684 215.161 123.888 215.161C126.931 215.161 129.494 217.081 129.975 219.8H117.748Z" fill="white"/>
<path d="M157.282 227.353C157.205 227.329 157.123 227.329 157.047 227.354C156.97 227.379 156.904 227.427 156.856 227.492C155.845 228.877 154.36 229.509 151.672 229.509C148.575 229.509 146.332 227.909 145.532 224.709H164.014C164.113 224.709 164.208 224.671 164.279 224.603C164.351 224.535 164.393 224.442 164.398 224.344C164.433 223.589 164.433 223.192 164.433 222.311C164.433 214.846 159.2 209.193 151.619 209.193C144.038 209.193 138.698 214.846 138.698 222.311C138.698 229.828 143.878 235.427 151.833 235.427C156.066 235.427 160.533 233.722 162.749 229.61C162.777 229.56 162.793 229.505 162.797 229.448C162.801 229.391 162.792 229.334 162.771 229.281C162.751 229.228 162.718 229.181 162.677 229.142C162.635 229.103 162.586 229.073 162.531 229.056L157.282 227.353ZM145.478 219.8C146.172 217.03 148.416 215.161 151.619 215.161C154.662 215.161 157.225 217.081 157.705 219.8H145.478Z" fill="white"/>
<path d="M70.9082 209.776H64.3052C64.0937 209.776 63.9224 209.948 63.9224 210.159V234.454C63.9224 234.665 64.0937 234.837 64.3052 234.837H70.9082C71.1196 234.837 71.291 234.665 71.291 234.454V210.159C71.291 209.948 71.1196 209.776 70.9082 209.776Z" fill="white"/>
<path d="M67.606 197.14C65.0957 197.14 63.0139 199.112 63.0139 201.619C63.0139 204.07 65.0943 205.99 67.606 205.99C70.1177 205.99 72.198 204.07 72.198 201.619C72.198 199.112 70.1149 197.14 67.606 197.14Z" fill="white"/>
<path d="M109.566 209.777H102.577V201.629C102.577 201.578 102.567 201.529 102.548 201.482C102.529 201.435 102.501 201.393 102.465 201.358C102.43 201.322 102.387 201.294 102.341 201.274C102.294 201.255 102.245 201.245 102.194 201.245H95.5925C95.4908 201.245 95.3935 201.286 95.3217 201.358C95.25 201.43 95.2097 201.527 95.2097 201.629V209.777H85.812V208.497C85.812 205.777 87.1989 204.231 90.4041 204.231C90.7869 204.231 91.1696 204.259 91.5316 204.293C91.5845 204.298 91.6379 204.292 91.6882 204.275C91.7386 204.258 91.7848 204.231 91.824 204.195C91.8632 204.159 91.8944 204.115 91.9157 204.067C91.937 204.018 91.9479 203.966 91.9477 203.913V198.788C91.9476 198.699 91.9162 198.612 91.859 198.543C91.8018 198.475 91.7223 198.428 91.6343 198.411C90.4711 198.184 89.2898 198.06 88.1046 198.043C82.4973 198.043 78.4406 201.403 78.4406 208.814V209.774H73.9221C73.8206 209.774 73.7232 209.814 73.6514 209.886C73.5796 209.958 73.5393 210.055 73.5393 210.156V215.142C73.5393 215.244 73.5796 215.341 73.6514 215.412C73.7232 215.484 73.8206 215.524 73.9221 215.524H78.4517V234.444C78.4515 234.494 78.4613 234.544 78.4805 234.59C78.4997 234.636 78.5279 234.679 78.5634 234.714C78.599 234.75 78.6413 234.778 78.6878 234.797C78.7343 234.816 78.7842 234.826 78.8345 234.826H85.4334C85.5349 234.826 85.6323 234.786 85.7041 234.714C85.7759 234.642 85.8162 234.545 85.8162 234.444V215.534H95.2139V224.972C95.2139 231.744 99.111 235.262 104.985 235.262C106.317 235.261 107.642 235.072 108.921 234.701C109.001 234.678 109.072 234.63 109.122 234.563C109.172 234.496 109.199 234.415 109.198 234.331V229.106C109.198 229.054 109.187 229.003 109.167 228.955C109.146 228.908 109.117 228.865 109.079 228.829C109.042 228.794 108.997 228.766 108.949 228.748C108.901 228.729 108.849 228.721 108.797 228.723C107.994 228.758 107.284 228.758 107.009 228.758C103.645 228.758 102.571 227.104 102.571 223.959V215.534H109.566C109.667 215.534 109.764 215.494 109.836 215.422C109.908 215.35 109.948 215.253 109.948 215.152V210.166C109.949 210.115 109.94 210.065 109.921 210.017C109.902 209.97 109.874 209.927 109.839 209.891C109.803 209.855 109.761 209.826 109.714 209.806C109.667 209.787 109.616 209.777 109.566 209.777Z" fill="white"/>
<path d="M178.786 209.189C170.99 209.243 166.772 214.037 166.772 220.814V234.525C166.772 234.565 166.78 234.605 166.796 234.641C166.811 234.678 166.833 234.712 166.861 234.74C166.89 234.768 166.923 234.79 166.96 234.805C166.997 234.821 167.036 234.829 167.076 234.829H173.836C173.876 234.829 173.915 234.821 173.952 234.805C173.989 234.79 174.023 234.768 174.051 234.74C174.079 234.712 174.101 234.678 174.117 234.641C174.132 234.605 174.14 234.565 174.14 234.525V221.34C174.14 217.821 175.689 215.634 178.786 215.581C181.881 215.634 183.431 217.821 183.431 221.34V234.525C183.431 234.565 183.438 234.605 183.454 234.641C183.469 234.678 183.491 234.712 183.52 234.74C183.548 234.768 183.581 234.79 183.618 234.805C183.655 234.821 183.694 234.829 183.734 234.829H190.494C190.534 234.829 190.573 234.821 190.61 234.805C190.647 234.79 190.681 234.768 190.709 234.74C190.737 234.712 190.759 234.678 190.775 234.641C190.79 234.605 190.798 234.565 190.798 234.525V220.814C190.798 214.042 186.58 209.243 178.786 209.189Z" fill="white"/>
<path d="M61.2527 209.776H54.4818V208.496C54.4818 205.776 55.8687 204.23 59.0738 204.23C59.4899 204.23 59.906 204.262 60.2888 204.301C60.331 204.305 60.3736 204.301 60.4139 204.287C60.4541 204.274 60.4912 204.253 60.5226 204.224C60.554 204.196 60.579 204.161 60.5961 204.122C60.6131 204.083 60.6218 204.041 60.6216 203.999V198.724C60.6213 198.653 60.5961 198.584 60.5506 198.529C60.505 198.475 60.4419 198.438 60.372 198.424C59.1876 198.19 57.9844 198.063 56.7771 198.045C51.1713 198.045 47.1132 201.405 47.1132 208.816V209.776H42.5849C42.5346 209.776 42.4848 209.785 42.4382 209.805C42.3917 209.824 42.3494 209.852 42.3139 209.887C42.2783 209.923 42.2501 209.965 42.2309 210.012C42.2117 210.058 42.202 210.108 42.2022 210.158V215.144C42.202 215.194 42.2117 215.244 42.2309 215.291C42.2501 215.337 42.2783 215.379 42.3139 215.415C42.3494 215.45 42.3917 215.479 42.4382 215.498C42.4848 215.517 42.5346 215.527 42.5849 215.526H47.1132V234.445C47.1132 234.496 47.1231 234.546 47.1424 234.592C47.1618 234.639 47.1901 234.681 47.2258 234.716C47.2615 234.752 47.3038 234.78 47.3504 234.799C47.397 234.818 47.447 234.828 47.4974 234.828H54.099C54.2005 234.828 54.2979 234.787 54.3697 234.716C54.4415 234.644 54.4818 234.547 54.4818 234.445V215.533H61.2527C61.3031 215.533 61.353 215.524 61.3996 215.505C61.4462 215.485 61.4885 215.457 61.5242 215.422C61.5599 215.386 61.5882 215.344 61.6076 215.298C61.6269 215.251 61.6368 215.201 61.6368 215.151V210.165C61.6378 210.114 61.6285 210.064 61.6096 210.016C61.5907 209.969 61.5625 209.926 61.5267 209.89C61.4909 209.854 61.4483 209.825 61.4012 209.805C61.3541 209.786 61.3036 209.776 61.2527 209.776Z" fill="white"/>
<path d="M84.7246 182.581L87.6441 183.878C87.9019 183.993 88.1947 184 88.4581 183.899C88.7215 183.798 88.934 183.597 89.049 183.34L109.853 136.665C109.912 136.531 109.942 136.385 109.943 136.239C109.943 136.092 109.913 135.947 109.855 135.812C109.796 135.677 109.711 135.556 109.603 135.456C109.496 135.356 109.368 135.279 109.23 135.23C108.283 134.887 107.363 134.478 106.474 134.006C106.345 133.935 106.203 133.892 106.056 133.879C105.909 133.866 105.762 133.884 105.622 133.931C105.483 133.977 105.354 134.053 105.245 134.151C105.136 134.25 105.049 134.37 104.989 134.504L84.1851 181.179C84.0711 181.436 84.0638 181.728 84.1649 181.991C84.266 182.254 84.4673 182.466 84.7246 182.581Z" fill="white"/>
<path d="M98.1458 128.159L60.121 162.349C60.017 162.443 59.9324 162.556 59.8722 162.682C59.8119 162.808 59.7771 162.944 59.7698 163.084C59.7624 163.223 59.7827 163.363 59.8294 163.494C59.8761 163.626 59.9483 163.747 60.0419 163.851L62.1792 166.222C62.2726 166.326 62.3857 166.41 62.5119 166.47C62.638 166.531 62.7748 166.565 62.9145 166.573C63.0541 166.58 63.1938 166.56 63.3256 166.513C63.4574 166.466 63.5787 166.394 63.6826 166.301L101.709 132.109C101.818 132.011 101.905 131.89 101.965 131.756C102.025 131.622 102.057 131.477 102.059 131.33C102.06 131.184 102.032 131.038 101.974 130.903C101.917 130.767 101.832 130.645 101.725 130.544C101 129.846 100.325 129.099 99.7046 128.306C99.6154 128.189 99.5029 128.092 99.3743 128.021C99.2457 127.95 99.1037 127.906 98.9573 127.892C98.811 127.879 98.6633 127.895 98.5236 127.941C98.384 127.987 98.2553 128.061 98.1458 128.159Z" fill="white"/>
<path d="M45.1202 136.716L46.1077 139.751C46.1509 139.883 46.2199 140.006 46.3107 140.112C46.4015 140.218 46.5123 140.306 46.6369 140.369C46.7614 140.432 46.8972 140.47 47.0366 140.481C47.1759 140.492 47.316 140.475 47.4488 140.432L96.1125 124.65C96.2523 124.604 96.381 124.53 96.4905 124.431C96.6001 124.333 96.6883 124.214 96.7495 124.08C96.8107 123.947 96.8436 123.802 96.8461 123.655C96.8487 123.508 96.8209 123.362 96.7644 123.226C96.3864 122.293 96.0759 121.334 95.8352 120.357C95.8011 120.214 95.7378 120.079 95.6493 119.962C95.5609 119.844 95.4491 119.747 95.321 119.674C95.1929 119.602 95.0512 119.557 94.9049 119.542C94.7585 119.527 94.6106 119.542 94.4704 119.586L45.8081 135.376C45.6747 135.418 45.551 135.487 45.4442 135.577C45.3373 135.668 45.2495 135.779 45.1856 135.903C45.1217 136.028 45.083 136.164 45.0718 136.303C45.0606 136.443 45.077 136.583 45.1202 136.716Z" fill="white"/>
<path d="M52.7509 76.6351L51.1532 79.3982C51.012 79.6424 50.9737 79.9327 51.0468 80.2052C51.1199 80.4776 51.2983 80.7099 51.5429 80.851L95.8531 106.399C95.9808 106.472 96.1221 106.517 96.2682 106.533C96.4144 106.549 96.5622 106.534 96.7025 106.491C96.8428 106.447 96.9725 106.375 97.0836 106.279C97.1947 106.182 97.2848 106.064 97.3482 105.932C97.789 105.027 98.2942 104.154 98.8599 103.321C98.9427 103.2 98.9998 103.064 99.0276 102.92C99.0553 102.777 99.0532 102.629 99.0214 102.486C98.9895 102.343 98.9286 102.208 98.8423 102.09C98.7561 101.971 98.6464 101.872 98.5201 101.798L54.2044 76.2459C54.0833 76.1761 53.9497 76.1308 53.8112 76.1126C53.6726 76.0944 53.5319 76.1036 53.3969 76.1398C53.2619 76.1759 53.1354 76.2382 53.0245 76.3232C52.9137 76.4082 52.8207 76.5142 52.7509 76.6351Z" fill="white"/>
<path d="M73.9817 54.0787L71.3979 55.954C71.1696 56.1198 71.0166 56.3692 70.9724 56.6476C70.9282 56.926 70.9964 57.2105 71.1621 57.4387L101.244 98.7837C101.331 98.9023 101.442 99.0017 101.569 99.0756C101.696 99.1494 101.837 99.1962 101.984 99.213C102.13 99.2298 102.278 99.2162 102.419 99.1731C102.56 99.1299 102.69 99.0582 102.802 98.9624C103.572 98.3148 104.386 97.7219 105.24 97.1882C105.365 97.1111 105.472 97.0092 105.556 96.8886C105.64 96.7681 105.698 96.6316 105.726 96.4877C105.755 96.3438 105.753 96.1956 105.722 96.0523C105.69 95.9091 105.63 95.7738 105.543 95.655L75.4698 54.3142C75.3036 54.0861 75.0535 53.9332 74.7745 53.8891C74.4955 53.845 74.2104 53.9131 73.9817 54.0787Z" fill="white"/>
<path d="M102.566 42.0953L99.4411 42.7587C99.1649 42.8176 98.9234 42.9835 98.7697 43.2201C98.616 43.4567 98.5627 43.7446 98.6215 44.0205L109.26 94.0051C109.292 94.1487 109.352 94.2842 109.439 94.4033C109.525 94.5224 109.635 94.6225 109.761 94.6972C109.888 94.772 110.029 94.8198 110.175 94.8378C110.321 94.8557 110.469 94.8433 110.61 94.8015C111.577 94.525 112.563 94.3172 113.56 94.1796C113.706 94.1608 113.846 94.112 113.972 94.0364C114.099 93.9607 114.208 93.8598 114.293 93.7401C114.378 93.6203 114.438 93.4842 114.468 93.3403C114.498 93.1964 114.498 93.0479 114.468 92.904L103.829 42.9139C103.77 42.6382 103.604 42.3973 103.367 42.2438C103.13 42.0904 102.842 42.037 102.566 42.0953Z" fill="white"/>
<path d="M133.559 42.7587L130.434 42.0953C130.158 42.037 129.87 42.0904 129.633 42.2438C129.396 42.3973 129.23 42.6382 129.171 42.9139L118.532 92.9027C118.502 93.0466 118.501 93.1953 118.531 93.3394C118.561 93.4834 118.621 93.6197 118.706 93.7396C118.792 93.8595 118.901 93.9605 119.027 94.0363C119.154 94.112 119.294 94.1608 119.44 94.1796C120.437 94.3176 121.423 94.5259 122.39 94.8029C122.531 94.8447 122.679 94.8571 122.825 94.8392C122.971 94.8212 123.112 94.7734 123.239 94.6986C123.366 94.6239 123.475 94.5238 123.562 94.4047C123.648 94.2856 123.708 94.1501 123.74 94.0065L134.379 44.0219C134.408 43.8852 134.41 43.744 134.385 43.6066C134.359 43.4691 134.307 43.3379 134.231 43.2206C134.155 43.1033 134.056 43.0021 133.941 42.9229C133.826 42.8436 133.696 42.7879 133.559 42.7587Z" fill="white"/>
<path d="M161.602 55.954L159.018 54.0787C158.79 53.9131 158.505 53.845 158.226 53.8891C157.947 53.9332 157.696 54.0861 157.53 54.3142L127.457 95.655C127.371 95.7742 127.31 95.9097 127.279 96.0532C127.248 96.1967 127.247 96.3451 127.276 96.489C127.305 96.633 127.364 96.7694 127.448 96.8897C127.532 97.01 127.64 97.1116 127.766 97.1882C128.619 97.7215 129.434 98.3144 130.204 98.9624C130.316 99.0573 130.446 99.1283 130.586 99.1709C130.726 99.2135 130.873 99.2268 131.019 99.2101C131.164 99.1933 131.305 99.1468 131.432 99.0735C131.559 99.0001 131.669 98.9015 131.756 98.7837L161.838 57.4387C162.004 57.2105 162.072 56.926 162.028 56.6476C161.983 56.3692 161.83 56.1198 161.602 55.954Z" fill="white"/>
<path d="M181.847 79.3982L180.249 76.6351C180.179 76.5142 180.086 76.4082 179.976 76.3232C179.865 76.2382 179.738 76.1759 179.603 76.1398C179.468 76.1036 179.327 76.0944 179.189 76.1126C179.05 76.1308 178.917 76.1761 178.796 76.2459L134.48 101.798C134.354 101.872 134.244 101.971 134.158 102.09C134.072 102.208 134.011 102.343 133.979 102.486C133.947 102.629 133.945 102.777 133.972 102.92C134 103.064 134.057 103.201 134.14 103.321C134.706 104.153 135.211 105.024 135.652 105.928C135.715 106.06 135.805 106.178 135.916 106.274C136.028 106.371 136.157 106.443 136.298 106.487C136.438 106.53 136.586 106.545 136.732 106.529C136.878 106.513 137.019 106.467 137.147 106.395L181.457 80.8469C181.701 80.7058 181.878 80.4743 181.951 80.2028C182.024 79.9313 181.987 79.6421 181.847 79.3982Z" fill="white"/>
<path d="M136.887 124.65L185.547 140.439C185.68 140.482 185.82 140.499 185.959 140.488C186.099 140.477 186.234 140.439 186.359 140.376C186.483 140.313 186.594 140.225 186.685 140.119C186.776 140.013 186.845 139.89 186.888 139.758L187.876 136.723C187.963 136.455 187.939 136.163 187.811 135.912C187.683 135.661 187.46 135.471 187.192 135.384L138.53 119.595C138.39 119.55 138.243 119.535 138.097 119.549C137.951 119.564 137.809 119.608 137.681 119.68C137.553 119.751 137.442 119.848 137.353 119.965C137.264 120.081 137.2 120.214 137.165 120.357C136.924 121.332 136.613 122.289 136.236 123.221C136.178 123.357 136.15 123.503 136.152 123.651C136.154 123.798 136.187 123.944 136.248 124.078C136.309 124.212 136.397 124.333 136.508 124.431C136.618 124.53 136.747 124.604 136.887 124.65Z" fill="white"/>
<path d="M131.291 132.109L169.317 166.301C169.421 166.394 169.543 166.466 169.674 166.513C169.806 166.56 169.946 166.58 170.086 166.573C170.225 166.565 170.362 166.531 170.488 166.47C170.614 166.41 170.727 166.326 170.821 166.222L172.958 163.851C173.052 163.747 173.124 163.626 173.171 163.494C173.217 163.363 173.238 163.223 173.23 163.084C173.223 162.944 173.188 162.808 173.128 162.682C173.068 162.556 172.983 162.443 172.879 162.349L134.854 128.159C134.745 128.061 134.616 127.987 134.476 127.941C134.337 127.895 134.189 127.879 134.043 127.892C133.896 127.906 133.754 127.95 133.626 128.021C133.497 128.092 133.385 128.189 133.295 128.306C132.675 129.099 132 129.846 131.275 130.544C131.168 130.645 131.083 130.767 131.026 130.903C130.968 131.038 130.94 131.184 130.941 131.33C130.943 131.477 130.975 131.622 131.035 131.756C131.095 131.89 131.182 132.011 131.291 132.109Z" fill="white"/>
<path d="M145.356 183.878L148.268 182.58C148.527 182.466 148.728 182.253 148.829 181.99C148.931 181.726 148.923 181.434 148.808 181.176L128.004 134.501C127.944 134.367 127.857 134.247 127.748 134.148C127.639 134.05 127.511 133.974 127.371 133.928C127.231 133.881 127.084 133.863 126.937 133.876C126.79 133.889 126.648 133.932 126.519 134.003C125.63 134.475 124.71 134.885 123.763 135.227C123.625 135.276 123.498 135.353 123.39 135.453C123.282 135.553 123.197 135.674 123.138 135.809C123.08 135.944 123.05 136.089 123.05 136.236C123.051 136.383 123.081 136.528 123.141 136.662L143.944 183.337C144.001 183.465 144.082 183.581 144.184 183.678C144.286 183.775 144.406 183.851 144.537 183.901C144.668 183.951 144.808 183.975 144.949 183.971C145.089 183.967 145.228 183.936 145.356 183.878Z" fill="white"/>
<path d="M113.839 137.505V188.601C113.838 188.74 113.866 188.879 113.919 189.008C113.973 189.137 114.051 189.254 114.15 189.353C114.249 189.452 114.366 189.53 114.495 189.584C114.624 189.637 114.763 189.665 114.902 189.665H118.092C118.232 189.665 118.371 189.637 118.5 189.584C118.629 189.53 118.746 189.452 118.845 189.353C118.944 189.254 119.022 189.137 119.075 189.008C119.129 188.879 119.156 188.74 119.156 188.601V137.505C119.156 137.36 119.127 137.216 119.069 137.082C119.011 136.949 118.926 136.828 118.82 136.729C118.713 136.63 118.587 136.553 118.45 136.504C118.313 136.456 118.167 136.436 118.022 136.446C117.518 136.483 117.009 136.504 116.496 136.504C115.983 136.504 115.472 136.483 114.97 136.446C114.825 136.436 114.68 136.456 114.543 136.505C114.406 136.554 114.28 136.631 114.174 136.73C114.068 136.829 113.983 136.95 113.926 137.083C113.868 137.216 113.838 137.36 113.839 137.505Z" fill="white"/>
<path d="M94.5952 110.277L43.7124 104.919C43.4317 104.89 43.1508 104.973 42.9314 105.15C42.712 105.328 42.5719 105.584 42.5419 105.865L42.2076 109.038C42.1928 109.177 42.2056 109.317 42.2452 109.451C42.2848 109.585 42.3505 109.71 42.4385 109.818C42.5265 109.927 42.6351 110.017 42.758 110.084C42.8809 110.15 43.0158 110.192 43.1549 110.207L94.0321 115.565C94.1771 115.581 94.3237 115.566 94.4629 115.523C94.602 115.479 94.7307 115.407 94.8409 115.312C94.9511 115.217 95.0404 115.1 95.1034 114.968C95.1663 114.837 95.2015 114.694 95.2068 114.549C95.2221 114.045 95.2554 113.536 95.3094 113.025C95.3635 112.514 95.437 112.011 95.5272 111.514C95.5523 111.371 95.5478 111.225 95.5139 111.084C95.4799 110.942 95.4174 110.81 95.33 110.694C95.2426 110.578 95.1323 110.481 95.0059 110.409C94.8795 110.338 94.7397 110.293 94.5952 110.277Z" fill="white"/>
<path d="M138.405 110.277L189.288 104.919C189.568 104.89 189.849 104.973 190.069 105.15C190.288 105.328 190.428 105.584 190.458 105.865L190.792 109.038C190.807 109.177 190.794 109.317 190.755 109.451C190.715 109.585 190.649 109.71 190.561 109.818C190.474 109.927 190.365 110.017 190.242 110.084C190.119 110.15 189.984 110.192 189.845 110.207L138.968 115.565C138.823 115.581 138.676 115.566 138.537 115.523C138.398 115.479 138.269 115.407 138.159 115.312C138.049 115.217 137.96 115.1 137.897 114.968C137.834 114.837 137.798 114.694 137.793 114.549C137.778 114.045 137.745 113.536 137.691 113.025C137.636 112.514 137.563 112.011 137.473 111.514C137.448 111.371 137.452 111.225 137.486 111.084C137.52 110.942 137.583 110.81 137.67 110.694C137.757 110.578 137.868 110.481 137.994 110.409C138.12 110.338 138.26 110.293 138.405 110.277Z" fill="white"/>
</svg>
