<svg width="140" height="56" viewBox="0 0 140 56"  xmlns="http://www.w3.org/2000/svg">
<path d="M60.4178 33.9224C60.3776 33.9087 60.334 33.9082 60.2934 33.9208C60.2528 33.9334 60.2172 33.9585 60.1916 33.9925C59.6547 34.735 58.865 35.0697 57.4385 35.0697C55.7942 35.0697 54.6037 34.215 54.1785 32.5055H63.9928C64.0452 32.5054 64.0955 32.485 64.1334 32.4485C64.1712 32.4121 64.1936 32.3624 64.1959 32.3097C64.2148 31.9062 64.2148 31.6943 64.2148 31.2234C64.2148 27.2339 61.4365 24.2129 57.4106 24.2129C53.3846 24.2129 50.5491 27.2339 50.5491 31.2234C50.5491 35.241 53.2994 38.2325 57.5237 38.2325C59.772 38.2325 62.1439 37.3203 63.319 35.128C63.3333 35.1015 63.3416 35.0721 63.3434 35.042C63.3451 35.0119 63.3403 34.9818 63.3293 34.9538C63.3182 34.9257 63.3012 34.9005 63.2794 34.8798C63.2576 34.8591 63.2315 34.8434 63.2031 34.8339L60.4178 33.9224ZM54.1498 29.8859C54.5185 28.4045 55.709 27.4066 57.4106 27.4066C59.0263 27.4066 60.3871 28.4325 60.6427 29.8859H54.1498Z" fill="white"/>
<path d="M75.1471 33.9224C75.1068 33.9087 75.0633 33.9082 75.0227 33.9208C74.9821 33.9334 74.9465 33.9585 74.9208 33.9925C74.3839 34.735 73.5942 35.0697 72.1677 35.0697C70.5234 35.0697 69.3329 34.215 68.907 32.5055H78.722C78.7744 32.5054 78.8248 32.485 78.8626 32.4485C78.9004 32.4121 78.9229 32.3624 78.9252 32.3097C78.944 31.9062 78.944 31.6943 78.944 31.2234C78.944 27.2339 76.1651 24.2129 72.1391 24.2129C68.1131 24.2129 65.2783 27.2339 65.2783 31.2234C65.2783 35.241 68.0286 38.2325 72.2529 38.2325C74.5012 38.2325 76.8724 37.3203 78.0482 35.128C78.0625 35.1015 78.0708 35.0721 78.0726 35.042C78.0744 35.0119 78.0696 34.9818 78.0585 34.9538C78.0475 34.9257 78.0305 34.9005 78.0086 34.8798C77.9868 34.8591 77.9608 34.8434 77.9323 34.8339L75.1471 33.9224ZM68.8791 29.8859C69.2477 28.4045 70.4382 27.4066 72.1391 27.4066C73.7555 27.4066 75.1164 28.4325 75.3719 29.8859H68.8791Z" fill="white"/>
<path d="M29.2798 24.5293H25.7747C25.6621 24.5293 25.5708 24.621 25.5708 24.7342V37.7174C25.5708 37.8305 25.6621 37.9223 25.7747 37.9223H29.2798C29.3924 37.9223 29.4837 37.8305 29.4837 37.7174V24.7342C29.4837 24.621 29.3924 24.5293 29.2798 24.5293Z" fill="white"/>
<path d="M27.5271 17.7764C26.1949 17.7764 25.0889 18.829 25.0889 20.1694C25.0889 21.4802 26.1949 22.5062 27.5271 22.5062C28.8593 22.5062 29.9653 21.4802 29.9653 20.1694C29.9653 18.8304 28.86 17.7764 27.5271 17.7764Z" fill="white"/>
<path d="M49.8069 24.5288H46.0979V20.1744C46.0979 20.1201 46.0765 20.068 46.0382 20.0295C46 19.9911 45.9481 19.9695 45.894 19.9695H42.3875C42.3335 19.9695 42.2816 19.9911 42.2434 20.0295C42.2051 20.068 42.1837 20.1201 42.1837 20.1744V24.5288H37.1948V23.8453C37.1948 22.392 37.9322 21.5653 39.6337 21.5653C39.8362 21.5653 40.0394 21.58 40.2321 21.599C40.2604 21.6017 40.2889 21.5985 40.3158 21.5895C40.3428 21.5805 40.3675 21.566 40.3886 21.5469C40.4096 21.5277 40.4264 21.5043 40.438 21.4783C40.4495 21.4522 40.4555 21.424 40.4556 21.3955V18.6586C40.4554 18.6108 40.4386 18.5645 40.4082 18.5277C40.3777 18.491 40.3355 18.466 40.2887 18.4572C39.6711 18.3357 39.0439 18.2699 38.4146 18.2607C35.4374 18.2607 33.2827 20.0558 33.2827 24.0151V24.5281H30.878C30.8239 24.5281 30.772 24.5497 30.7338 24.5881C30.6956 24.6266 30.6741 24.6787 30.6741 24.733V27.3997C30.6741 27.454 30.6956 27.5062 30.7338 27.5446C30.772 27.583 30.8239 27.6046 30.878 27.6046H33.2827V37.7169C33.2826 37.7438 33.2877 37.7704 33.2979 37.7952C33.3081 37.8201 33.323 37.8427 33.3419 37.8617C33.3608 37.8808 33.3832 37.8959 33.4079 37.9062C33.4326 37.9165 33.4591 37.9218 33.4858 37.9218H36.9916C37.0184 37.9218 37.0449 37.9165 37.0696 37.9062C37.0943 37.8959 37.1167 37.8808 37.1356 37.8617C37.1544 37.8427 37.1694 37.8201 37.1796 37.7952C37.1897 37.7704 37.1949 37.7438 37.1948 37.7169V27.6067H42.1851V32.6502C42.1851 36.2692 44.2546 38.1499 47.3736 38.1499C48.081 38.1494 48.7848 38.0483 49.4641 37.8495C49.5071 37.8377 49.545 37.8119 49.572 37.7763C49.599 37.7407 49.6136 37.6971 49.6135 37.6523V34.8593C49.6134 34.832 49.6079 34.805 49.5973 34.7798C49.5866 34.7547 49.5711 34.7319 49.5516 34.7129C49.5321 34.6938 49.509 34.6789 49.4836 34.669C49.4583 34.6591 49.4312 34.6544 49.404 34.6551C48.9774 34.6734 48.6004 34.6734 48.4545 34.6734C46.6684 34.6734 46.1014 33.7899 46.1014 32.1085V27.6067H49.8104C49.8372 27.6067 49.8636 27.6014 49.8883 27.5911C49.913 27.5808 49.9355 27.5657 49.9543 27.5466C49.9732 27.5276 49.9882 27.505 49.9983 27.4802C50.0085 27.4553 50.0137 27.4287 50.0136 27.4018V24.7351C50.0139 24.7078 50.0087 24.6808 49.9984 24.6555C49.9881 24.6303 49.9729 24.6073 49.9536 24.5881C49.9343 24.5689 49.9114 24.5537 49.8862 24.5435C49.861 24.5333 49.8341 24.5283 49.8069 24.5288Z" fill="white"/>
<path d="M86.5653 24.2158C82.4262 24.2446 80.1863 26.8123 80.1863 30.4285V37.7604C80.1863 37.8034 80.2033 37.8446 80.2335 37.875C80.2638 37.9054 80.3048 37.9225 80.3476 37.9225H83.9372C83.9799 37.9225 84.021 37.9054 84.0512 37.875C84.0815 37.8446 84.0985 37.8034 84.0985 37.7604V30.7134C84.0985 28.8327 84.921 27.6642 86.5653 27.6355C88.2096 27.6642 89.0321 28.8327 89.0321 30.7134V37.7604C89.0321 37.8034 89.0491 37.8446 89.0794 37.875C89.1096 37.9054 89.1506 37.9225 89.1934 37.9225H92.783C92.8258 37.9225 92.8668 37.9054 92.8971 37.875C92.9273 37.8446 92.9443 37.8034 92.9443 37.7604V30.4285C92.9443 26.8074 90.7051 24.2446 86.5653 24.2158Z" fill="white"/>
<path d="M24.154 24.5295H20.5581V23.846C20.5581 22.3927 21.2954 21.566 22.9963 21.566C23.2163 21.566 23.4355 21.5836 23.6415 21.6039C23.6639 21.6062 23.6866 21.6037 23.708 21.5966C23.7294 21.5895 23.7491 21.578 23.7658 21.5628C23.7825 21.5476 23.7959 21.529 23.805 21.5083C23.8141 21.4876 23.8188 21.4652 23.8188 21.4425V18.6236C23.8188 18.5855 23.8055 18.5487 23.7813 18.5194C23.7571 18.4902 23.7234 18.4704 23.6862 18.4636C23.0573 18.3381 22.4183 18.2702 21.7772 18.2607C18.8007 18.2607 16.6459 20.0558 16.6459 24.0151V24.5281H14.2405C14.2138 24.5281 14.1873 24.5334 14.1626 24.5437C14.1379 24.554 14.1155 24.5691 14.0966 24.5882C14.0777 24.6072 14.0628 24.6298 14.0526 24.6547C14.0425 24.6795 14.0373 24.7061 14.0374 24.733V27.3997C14.0373 27.4266 14.0425 27.4532 14.0526 27.4781C14.0628 27.5029 14.0777 27.5255 14.0966 27.5445C14.1155 27.5636 14.1379 27.5787 14.1626 27.589C14.1873 27.5993 14.2138 27.6046 14.2405 27.6046H16.6459V37.7176C16.6458 37.7445 16.651 37.7711 16.6612 37.7959C16.6714 37.8208 16.6863 37.8434 16.7052 37.8624C16.7241 37.8815 16.7465 37.8966 16.7712 37.9069C16.7959 37.9172 16.8224 37.9225 16.8491 37.9225H20.3549C20.3817 37.9225 20.4081 37.9172 20.4328 37.9069C20.4575 37.8966 20.48 37.8815 20.4988 37.8624C20.5177 37.8434 20.5327 37.8208 20.5428 37.7959C20.553 37.7711 20.5582 37.7445 20.5581 37.7176V27.6074H24.154C24.1807 27.6074 24.2072 27.6021 24.2319 27.5918C24.2566 27.5815 24.279 27.5664 24.2979 27.5474C24.3168 27.5283 24.3317 27.5057 24.3419 27.4809C24.3521 27.456 24.3573 27.4294 24.3572 27.4025V24.7358C24.3574 24.7088 24.3524 24.6821 24.3423 24.657C24.3322 24.632 24.3173 24.6093 24.2984 24.5901C24.2795 24.5709 24.257 24.5557 24.2322 24.5453C24.2074 24.5349 24.1808 24.5295 24.154 24.5295Z" fill="white"/>
<path d="M105.954 40.8832L106.513 41.1337C106.562 41.1557 106.619 41.1571 106.669 41.1377C106.72 41.1182 106.76 41.0794 106.782 41.0298L110.774 32.0207C110.785 31.9946 110.792 31.9662 110.792 31.9375C110.792 31.9087 110.787 31.8802 110.776 31.8538C110.764 31.8274 110.748 31.8036 110.727 31.784C110.706 31.7644 110.681 31.7494 110.654 31.74C110.473 31.674 110.296 31.595 110.126 31.5035C110.101 31.49 110.074 31.4817 110.045 31.4793C110.017 31.4768 109.989 31.4802 109.962 31.4892C109.936 31.4983 109.911 31.5127 109.89 31.5317C109.869 31.5507 109.852 31.5738 109.841 31.5996L105.85 40.6088C105.838 40.6336 105.832 40.6606 105.831 40.6879C105.83 40.7153 105.835 40.7425 105.845 40.7681C105.854 40.7936 105.869 40.817 105.888 40.8368C105.907 40.8565 105.929 40.8723 105.954 40.8832Z" fill="white"/>
<path d="M108.528 30.3782L101.235 36.9746C101.195 37.0111 101.171 37.062 101.168 37.1164C101.165 37.1707 101.184 37.2239 101.22 37.2645L101.63 37.722C101.666 37.7624 101.717 37.7867 101.771 37.7896C101.825 37.7925 101.878 37.7737 101.919 37.7374L109.212 31.141C109.232 31.1217 109.249 31.0984 109.26 31.0724C109.271 31.0464 109.277 31.0184 109.277 30.9901C109.277 30.9617 109.271 30.9337 109.26 30.9078C109.249 30.8818 109.232 30.8585 109.212 30.8392C109.073 30.7043 108.943 30.5598 108.824 30.4069C108.807 30.3847 108.786 30.3663 108.761 30.3527C108.737 30.3392 108.71 30.3308 108.682 30.3281C108.654 30.3254 108.626 30.3285 108.6 30.3371C108.573 30.3457 108.549 30.3597 108.528 30.3782Z" fill="white"/>
<path d="M98.3583 32.0297L98.5476 32.6157C98.5558 32.6413 98.569 32.6651 98.5864 32.6856C98.6037 32.7061 98.625 32.7229 98.6488 32.7352C98.6727 32.7474 98.6987 32.7548 98.7254 32.757C98.7522 32.7591 98.779 32.7559 98.8045 32.7476L108.137 29.6999C108.164 29.6911 108.189 29.6767 108.21 29.6578C108.231 29.6388 108.248 29.6157 108.26 29.5899C108.271 29.564 108.278 29.536 108.278 29.5076C108.278 29.4792 108.273 29.451 108.262 29.4248C108.19 29.2452 108.13 29.0606 108.084 28.8725C108.078 28.8449 108.065 28.8189 108.048 28.7961C108.032 28.7734 108.01 28.7545 107.985 28.7405C107.961 28.7265 107.934 28.7178 107.906 28.7149C107.877 28.712 107.849 28.7151 107.822 28.7237L98.4896 31.7715C98.4641 31.7797 98.4405 31.793 98.4201 31.8105C98.3997 31.8279 98.3829 31.8493 98.3707 31.8732C98.3585 31.8972 98.3512 31.9234 98.349 31.9502C98.3469 31.9771 98.3501 32.0041 98.3583 32.0297Z" fill="white"/>
<path d="M99.8217 20.4329L99.5152 20.9662C99.5017 20.9896 99.4929 21.0154 99.4893 21.0421C99.4858 21.0689 99.4875 21.0961 99.4945 21.1222C99.5014 21.1483 99.5134 21.1727 99.5298 21.1941C99.5462 21.2155 99.5666 21.2335 99.5899 21.2469L108.091 26.1753C108.115 26.1894 108.142 26.1983 108.17 26.2013C108.198 26.2044 108.227 26.2017 108.254 26.1932C108.281 26.1848 108.306 26.1709 108.327 26.1524C108.348 26.1338 108.366 26.1111 108.378 26.0855C108.462 25.9111 108.559 25.7429 108.668 25.5824C108.684 25.559 108.695 25.5326 108.7 25.5047C108.706 25.4768 108.705 25.4481 108.699 25.4204C108.693 25.3927 108.681 25.3665 108.665 25.3435C108.648 25.3206 108.627 25.3013 108.603 25.2869L100.1 20.3578C100.077 20.3442 100.052 20.3354 100.025 20.3319C99.9984 20.3283 99.9713 20.3301 99.9454 20.337C99.9195 20.344 99.8953 20.3561 99.874 20.3725C99.8528 20.389 99.835 20.4095 99.8217 20.4329Z" fill="white"/>
<path d="M103.894 16.0782L103.398 16.4403C103.354 16.4723 103.325 16.5205 103.316 16.5744C103.308 16.6282 103.321 16.6832 103.353 16.7273L109.121 24.7077C109.138 24.7305 109.159 24.7496 109.184 24.7639C109.208 24.7781 109.235 24.7871 109.263 24.7903C109.291 24.7935 109.32 24.7909 109.347 24.7826C109.374 24.7743 109.399 24.7605 109.42 24.742C109.568 24.6169 109.724 24.5025 109.888 24.3996C109.912 24.3848 109.933 24.3651 109.949 24.3419C109.965 24.3186 109.976 24.2923 109.982 24.2645C109.987 24.2367 109.987 24.2081 109.981 24.1804C109.975 24.1527 109.964 24.1265 109.947 24.1034L104.181 16.1238C104.165 16.1017 104.145 16.083 104.122 16.0687C104.099 16.0544 104.073 16.0448 104.047 16.0406C104.02 16.0364 103.993 16.0375 103.967 16.0439C103.94 16.0504 103.916 16.062 103.894 16.0782Z" fill="white"/>
<path d="M109.376 13.766L108.776 13.8944C108.723 13.9057 108.677 13.9377 108.647 13.9834C108.618 14.029 108.607 14.0846 108.619 14.1379L110.66 23.7857C110.665 23.8134 110.677 23.8396 110.693 23.8627C110.71 23.8858 110.731 23.9052 110.755 23.9197C110.779 23.9342 110.806 23.9435 110.834 23.947C110.862 23.9505 110.891 23.9481 110.918 23.94C111.104 23.8861 111.293 23.8458 111.484 23.8193C111.512 23.8157 111.539 23.8063 111.563 23.7916C111.587 23.777 111.608 23.7575 111.625 23.7344C111.641 23.7113 111.652 23.685 111.658 23.6572C111.664 23.6294 111.664 23.6008 111.658 23.573L109.618 13.9246C109.606 13.8714 109.575 13.8249 109.529 13.7952C109.484 13.7654 109.429 13.755 109.376 13.766Z" fill="white"/>
<path d="M115.32 13.8944L114.721 13.766C114.668 13.755 114.612 13.7654 114.567 13.7952C114.522 13.8249 114.49 13.8714 114.478 13.9246L112.437 23.573C112.432 23.6008 112.432 23.6295 112.438 23.6573C112.443 23.685 112.455 23.7113 112.471 23.7344C112.488 23.7576 112.509 23.777 112.533 23.7916C112.557 23.8062 112.584 23.8157 112.612 23.8193C112.803 23.8458 112.992 23.8861 113.177 23.94C113.205 23.9481 113.233 23.9505 113.261 23.947C113.289 23.9435 113.316 23.9342 113.341 23.9197C113.365 23.9052 113.386 23.8858 113.402 23.8627C113.419 23.8397 113.431 23.8134 113.437 23.7857L115.477 14.1379C115.482 14.1116 115.483 14.0844 115.478 14.0578C115.473 14.0313 115.463 14.006 115.448 13.9834C115.434 13.9608 115.415 13.9413 115.393 13.926C115.371 13.9107 115.346 13.9 115.32 13.8944Z" fill="white"/>
<path d="M120.698 16.4403L120.202 16.0781C120.181 16.0623 120.156 16.051 120.13 16.0447C120.104 16.0384 120.077 16.0374 120.05 16.0416C120.024 16.0459 119.999 16.0553 119.976 16.0694C119.953 16.0835 119.933 16.102 119.917 16.1238L114.149 24.1034C114.132 24.1264 114.121 24.1526 114.115 24.1803C114.109 24.208 114.108 24.2367 114.114 24.2645C114.119 24.2923 114.131 24.3187 114.147 24.3419C114.163 24.3652 114.184 24.3848 114.208 24.3995C114.372 24.5024 114.528 24.6169 114.676 24.742C114.697 24.7604 114.722 24.7742 114.749 24.7825C114.776 24.7908 114.804 24.7935 114.832 24.7902C114.86 24.787 114.887 24.778 114.912 24.7638C114.936 24.7496 114.957 24.7304 114.974 24.7076L120.743 16.7273C120.775 16.6831 120.788 16.6281 120.78 16.5743C120.771 16.5205 120.742 16.4723 120.698 16.4403Z" fill="white"/>
<path d="M124.581 20.9665L124.274 20.4332C124.261 20.4097 124.243 20.3891 124.222 20.3726C124.201 20.3561 124.176 20.344 124.15 20.337C124.124 20.33 124.097 20.3283 124.071 20.3319C124.044 20.3355 124.018 20.3444 123.995 20.3581L115.495 25.2893C115.471 25.3037 115.45 25.323 115.433 25.3459C115.417 25.3689 115.405 25.3951 115.399 25.4228C115.393 25.4506 115.392 25.4793 115.398 25.5071C115.403 25.535 115.414 25.5614 115.431 25.5848C115.539 25.7455 115.636 25.9136 115.72 26.0879C115.733 26.1135 115.75 26.1362 115.771 26.1548C115.793 26.1733 115.817 26.1872 115.844 26.1956C115.871 26.2041 115.9 26.2068 115.928 26.2038C115.956 26.2007 115.983 26.1918 116.007 26.1778L124.505 21.2465C124.529 21.2331 124.549 21.2153 124.565 21.194C124.582 21.1726 124.594 21.1483 124.601 21.1223C124.608 21.0962 124.61 21.0691 124.606 21.0424C124.603 21.0157 124.594 20.9899 124.581 20.9665Z" fill="white"/>
<path d="M115.959 29.6999L125.291 32.7476C125.343 32.7644 125.399 32.76 125.447 32.7352C125.495 32.7105 125.532 32.6675 125.549 32.6157L125.738 32.0297C125.746 32.0041 125.749 31.9771 125.747 31.9502C125.745 31.9234 125.738 31.8972 125.726 31.8732C125.713 31.8493 125.697 31.8279 125.676 31.8105C125.656 31.793 125.632 31.7797 125.607 31.7715L116.274 28.7237C116.247 28.7151 116.219 28.712 116.191 28.7149C116.163 28.7178 116.135 28.7265 116.111 28.7405C116.086 28.7545 116.065 28.7734 116.048 28.7961C116.031 28.8189 116.019 28.8449 116.012 28.8725C115.966 29.0606 115.907 29.2452 115.834 29.4248C115.823 29.451 115.818 29.4792 115.818 29.5076C115.819 29.536 115.825 29.564 115.837 29.5899C115.849 29.6157 115.866 29.6388 115.887 29.6578C115.908 29.6767 115.932 29.6911 115.959 29.6999Z" fill="white"/>
<path d="M114.885 31.1408L122.178 37.7373C122.218 37.7736 122.271 37.7923 122.325 37.7894C122.379 37.7865 122.43 37.7622 122.466 37.7218L122.876 37.2643C122.894 37.2443 122.908 37.221 122.917 37.1956C122.926 37.1702 122.93 37.1432 122.928 37.1163C122.927 37.0894 122.92 37.063 122.909 37.0387C122.897 37.0143 122.881 36.9925 122.861 36.9745L115.568 30.378C115.547 30.359 115.523 30.3446 115.496 30.3356C115.469 30.3267 115.441 30.3234 115.413 30.3261C115.384 30.3287 115.357 30.3372 115.333 30.351C115.308 30.3647 115.286 30.3835 115.269 30.406C115.15 30.5589 115.021 30.7034 114.882 30.8383C114.861 30.8578 114.845 30.8813 114.834 30.9074C114.822 30.9336 114.817 30.9617 114.817 30.9902C114.817 31.0186 114.824 31.0466 114.835 31.0726C114.847 31.0985 114.864 31.1217 114.885 31.1408Z" fill="white"/>
<path d="M117.583 41.1331L118.141 40.8826C118.191 40.8605 118.229 40.8195 118.249 40.7687C118.268 40.718 118.267 40.6615 118.245 40.6117L114.254 31.6026C114.243 31.5768 114.226 31.5536 114.205 31.5346C114.184 31.5157 114.159 31.5012 114.133 31.4922C114.106 31.4832 114.078 31.4798 114.049 31.4822C114.021 31.4847 113.994 31.4929 113.969 31.5064C113.799 31.5978 113.622 31.6768 113.441 31.7429C113.414 31.7522 113.389 31.7672 113.368 31.7868C113.347 31.8064 113.33 31.8301 113.319 31.8566C113.308 31.8831 113.302 31.9116 113.303 31.9404C113.303 31.9691 113.309 31.9975 113.321 32.0236L117.312 41.0327C117.335 41.0819 117.376 41.12 117.427 41.1388C117.478 41.1576 117.534 41.1556 117.583 41.1331Z" fill="white"/>
<path d="M111.537 32.182V42.0444C111.538 42.0988 111.559 42.1509 111.598 42.1894C111.636 42.2278 111.688 42.2493 111.742 42.2493H112.354C112.408 42.2493 112.46 42.2278 112.499 42.1894C112.537 42.1509 112.559 42.0988 112.559 42.0444V32.182C112.559 32.1538 112.553 32.126 112.542 32.1002C112.531 32.0743 112.515 32.0511 112.494 32.0319C112.474 32.0126 112.45 31.9979 112.423 31.9884C112.397 31.979 112.369 31.9751 112.341 31.977C112.244 31.9848 112.147 31.9883 112.048 31.9883C111.949 31.9883 111.852 31.9883 111.755 31.977C111.727 31.9751 111.699 31.979 111.673 31.9884C111.647 31.9979 111.622 32.0126 111.602 32.0319C111.581 32.0511 111.565 32.0743 111.554 32.1002C111.543 32.126 111.537 32.1538 111.537 32.182Z" fill="white"/>
<path d="M107.847 26.9263L98.0881 25.8947C98.0615 25.8919 98.0346 25.8943 98.0089 25.902C97.9832 25.9096 97.9593 25.9223 97.9385 25.9392C97.9177 25.9562 97.9004 25.9771 97.8876 26.0007C97.8748 26.0244 97.8668 26.0504 97.864 26.0771L97.7998 26.6891C97.7969 26.7159 97.7993 26.743 97.8068 26.7689C97.8144 26.7948 97.827 26.819 97.8438 26.84C97.8607 26.861 97.8815 26.8784 97.9051 26.8913C97.9287 26.9042 97.9546 26.9122 97.9813 26.915L107.742 27.9473C107.77 27.9503 107.798 27.9475 107.825 27.9391C107.851 27.9307 107.876 27.9168 107.897 27.8984C107.918 27.88 107.935 27.8574 107.948 27.832C107.96 27.8066 107.966 27.7789 107.967 27.7508C107.967 27.6533 107.976 27.5557 107.987 27.4568C107.997 27.3578 108.011 27.2617 108.029 27.1656C108.034 27.1377 108.033 27.1092 108.026 27.0817C108.019 27.0543 108.007 27.0285 107.99 27.006C107.973 26.9835 107.952 26.9648 107.927 26.9511C107.902 26.9374 107.875 26.9289 107.847 26.9263Z" fill="white"/>
<path d="M116.249 26.9263L126.008 25.8947C126.035 25.8919 126.062 25.8943 126.087 25.902C126.113 25.9096 126.137 25.9223 126.158 25.9392C126.178 25.9562 126.196 25.9771 126.209 26.0007C126.221 26.0244 126.229 26.0504 126.232 26.0771L126.296 26.6891C126.299 26.7159 126.297 26.743 126.289 26.7689C126.282 26.7948 126.269 26.819 126.252 26.84C126.235 26.861 126.215 26.8784 126.191 26.8913C126.167 26.9042 126.141 26.9122 126.115 26.915L116.356 27.9494C116.329 27.9524 116.3 27.9496 116.274 27.9412C116.247 27.9328 116.222 27.919 116.201 27.9005C116.18 27.8821 116.163 27.8595 116.151 27.8341C116.139 27.8087 116.132 27.7811 116.131 27.7529C116.131 27.6554 116.121 27.5578 116.111 27.4589C116.101 27.3599 116.087 27.2638 116.069 27.1677C116.064 27.1398 116.065 27.1112 116.071 27.0836C116.078 27.0561 116.09 27.0301 116.106 27.0074C116.123 26.9848 116.145 26.9658 116.169 26.9519C116.194 26.9379 116.221 26.9292 116.249 26.9263Z" fill="white"/>
</svg>
