<svg width="26" height="28" viewBox="0 0 26 28"  xmlns="http://www.w3.org/2000/svg">
<path d="M18.1213 0.560126C18.042 0.561086 17.9636 0.576769 17.89 0.606376L1.25003 7.00638C1.12932 7.05287 1.02552 7.13486 0.952332 7.24152C0.879141 7.34818 0.839987 7.47452 0.84003 7.60388V21.0439C0.83883 21.1287 0.854498 21.2129 0.886123 21.2916C0.917748 21.3703 0.964699 21.4419 1.02425 21.5023C1.0838 21.5627 1.15475 21.6107 1.233 21.6434C1.31124 21.6761 1.39521 21.693 1.48003 21.693C1.56485 21.693 1.64882 21.6761 1.72706 21.6434C1.80531 21.6107 1.87626 21.5627 1.93581 21.5023C1.99536 21.4419 2.04231 21.3703 2.07394 21.2916C2.10556 21.2129 2.12123 21.1287 2.12003 21.0439V8.04388L18.35 1.80138C18.4921 1.74952 18.6112 1.64904 18.6862 1.51775C18.7613 1.38646 18.7874 1.23284 18.76 1.08412C18.7326 0.935399 18.6534 0.801188 18.5365 0.705273C18.4196 0.609359 18.2725 0.557938 18.1213 0.560126ZM21.3213 3.12013C21.242 3.12109 21.1636 3.13677 21.09 3.16638L4.45003 9.56638C4.32932 9.61287 4.22552 9.69486 4.15233 9.80152C4.07914 9.90818 4.03999 10.0345 4.04003 10.1639V23.6039C4.03883 23.6887 4.0545 23.7729 4.08612 23.8516C4.11775 23.9303 4.1647 24.0019 4.22425 24.0623C4.2838 24.1227 4.35475 24.1707 4.433 24.2034C4.51124 24.2361 4.59521 24.253 4.68003 24.253C4.76485 24.253 4.84882 24.2361 4.92706 24.2034C5.00531 24.1707 5.07626 24.1227 5.13581 24.0623C5.19536 24.0019 5.24231 23.9303 5.27394 23.8516C5.30556 23.7729 5.32123 23.6887 5.32003 23.6039V10.6039L21.55 4.36138C21.6921 4.30952 21.8112 4.20904 21.8862 4.07775C21.9613 3.94646 21.9874 3.79284 21.96 3.64412C21.9326 3.4954 21.8534 3.36119 21.7365 3.26527C21.6196 3.16936 21.4725 3.11794 21.3213 3.12013ZM24.5013 5.68388C24.429 5.686 24.3575 5.70037 24.29 5.72638L7.65003 12.1264C7.52931 12.1729 7.42552 12.2549 7.35233 12.3615C7.27914 12.4682 7.23999 12.5945 7.24003 12.7239V26.8039C7.24 26.9078 7.26527 27.0101 7.31366 27.1021C7.36204 27.194 7.43208 27.2728 7.51774 27.3317C7.60339 27.3905 7.70207 27.4276 7.80527 27.4397C7.90846 27.4519 8.01306 27.4387 8.11003 27.4014L24.75 21.0014C24.8707 20.9549 24.9745 20.8729 25.0477 20.7662C25.1209 20.6596 25.1601 20.5332 25.16 20.4039V6.32388C25.1601 6.23823 25.1429 6.15345 25.1096 6.07456C25.0762 5.99567 25.0274 5.92427 24.966 5.86459C24.9045 5.80491 24.8318 5.75816 24.7519 5.72712C24.6721 5.69608 24.5869 5.68138 24.5013 5.68388ZM23.88 7.25638V19.9639L8.52003 25.8714V13.1639L23.88 7.25638Z" />
</svg>
