<svg fill="none" height="40" viewBox="0 0 66 40" width="66" xmlns="http://www.w3.org/2000/svg" xmlns:xlink="http://www.w3.org/1999/xlink"><filter id="a" color-interpolation-filters="sRGB" filterUnits="userSpaceOnUse" height="24" width="24.002" x="21.1035" y="12.7812"><feFlood flood-opacity="0" result="BackgroundImageFix"/><feBlend in="SourceGraphic" in2="BackgroundImageFix" mode="normal" result="shape"/><feGaussianBlur result="effect1_foregroundBlur_1703_64777" stdDeviation="2"/></filter><g filter="url(#a)"><path clip-rule="evenodd" d="m40.9446 17.6449c.212.4264.2144.9256.0066 1.3539l-6.33 13.0494c-.3122.6436-1.0917.9145-1.7411.6051-.3288-.1566-.5763-.4425-.6827-.7882l-1.0419-3.3861c-.2519-.8187-.8973-1.4601-1.7228-1.7121l-3.3912-1.035c-.7013-.214-1.0948-.951-.8788-1.6461.1077-.3464.3546-.6335.6827-.7937l13.0091-6.3513c.7279-.3553 1.5996-.097 2.0173.5736z" fill="#ff6682" fill-rule="evenodd"/></g><path clip-rule="evenodd" d="m37.1711 14.9588-10.0008 4.9266c-.4497.2216-.7882.6187-.9358 1.0979-.2961.9614.2433 1.9808 1.2047 2.2769l2.607.8029c.3807.1172.6784.4158.7946.7968l.8009 2.6266c.1471.4821.4892.8807.9434 1.0991.8975.4314 1.9748.0536 2.4062-.8438l4.8662-10.1224c.2662-.5537.2631-1.1992-.0085-1.7503-.4881-.9909-1.687-1.3985-2.6779-.9103zm1.9597 1.2623c.1629.3307.1648.7179.005 1.0502l-4.8661 10.1223c-.24.4993-.8393.7094-1.3386.4694-.2527-.1215-.443-.3432-.5248-.6114l-.8009-2.6266c-.1937-.635-.6899-1.1326-1.3244-1.328l-2.607-.8029c-.5391-.166-.8416-.7377-.6756-1.2769.0828-.2687.2726-.4914.5249-.6157l10.0007-4.9266c.5596-.2757 1.2297-.0753 1.5508.4449z" fill="#000" fill-rule="evenodd"/><path d="m37.1711 14.9588-.221-.4486zm-10.0008 4.9266.221.4486zm-.9358 1.0979.4778.1472zm1.2047 2.2769-.1472.4779zm2.607.8029.1471-.4779zm.7946.7968.4783-.1458zm.8009 2.6266-.4782.1458zm.9434 1.0991.2167-.4507zm2.4062-.8438.4506.2166zm4.8662-10.1224-.4507-.2166zm-.0085-1.7503.4486-.221zm-.7182.352.4485-.221-.0052-.0107-.0058-.0104zm.005 1.0502-.4506-.2167zm-4.8661 10.1223-.4507-.2166zm-1.3386.4694.2167-.4506zm-.5248-.6114.4783-.1458zm-.8009-2.6266-.4783.1459zm-1.3244-1.328.1472-.4779zm-2.607-.8029-.1471.4779zm-.6756-1.2769.4779.1472zm.5249-.6157.2209.4486zm10.0007-4.9266-.2209-.4485zm1.5508.4449.4375-.242-.0058-.0104-.0062-.0102zm-2.1247-1.6096-10.0007 4.9267.4419.8971 10.0007-4.9267zm-10.0007 4.9267c-.5732.2824-1.0047.7886-1.1928 1.3992l.9557.2944c.1071-.3477.3527-.6358.679-.7965zm-1.1928 1.3992c-.3773 1.2254.3101 2.5246 1.5354 2.902l.2943-.9557c-.6975-.2148-1.0888-.9544-.874-1.6519zm1.5354 2.902 2.607.8028.2943-.9557-2.607-.8028zm2.607.8028c.2221.0684.3958.2426.4635.4649l.9566-.2917c-.1647-.5398-.5864-.9628-1.1258-1.1289zm.4635.4649.801 2.6265.9565-.2917-.8009-2.6265zm.801 2.6265c.1878.6159.6248 1.1249 1.205 1.4039l.4333-.9013c-.3283-.1578-.5756-.4458-.6818-.7943zm1.205 1.4039c1.1463.5511 2.5223.0685 3.0734-1.0778l-.9012-.4333c-.3118.6486-1.0904.9216-1.7389.6098zm3.0734-1.0778 4.8662-10.1223-.9013-.4333-4.8661 10.1223zm4.8662-10.1223c.3328-.6923.3289-1.499-.0105-2.188l-.8971.4419c.2037.4134.206.8975.0063 1.3128zm-.0105-2.188c-.6102-1.2386-2.1089-1.748-3.3475-1.1379l.4419.8971c.7432-.3661 1.6424-.0604 2.0085.6827zm-1.6154.7939c.0951.1929.0962.4188.003.6126l.9013.4333c.2262-.4707.2236-1.0193-.0072-1.4878zm.003.6126-4.8662 10.1224.9013.4333 4.8662-10.1224zm-4.8662 10.1224c-.1203.2504-.4209.3557-.6712.2354l-.4333.9012c.7481.3597 1.6462.0448 2.0058-.7033zm-.6712.2354c-.1267-.0609-.2222-.1721-.2632-.3066l-.9565.2916c.1225.4019.4077.7342.7864.9162zm-.2632-.3066-.8009-2.6266-.9566.2917.801 2.6265zm-.8009-2.6266c-.2421-.7938-.8624-1.4158-1.6555-1.6601l-.2943.9557c.4759.1466.848.5198.9932.9961zm-1.6555-1.6601-2.607-.8028-.2943.9557 2.607.8028zm-2.607-.8028c-.2753-.0848-.4297-.3767-.3449-.6519l-.9557-.2943c-.2473.803.2032 1.6546 1.0063 1.9019zm-.3449-.6519c.0422-.1372.1392-.2509.2679-.3143l-.4419-.8971c-.3757.1851-.6585.5168-.7817.9171zm.2679-.3143 10.0008-4.9267-.4419-.897-10.0008 4.9266zm10.0008-4.9267c.3261-.1607.7173-.044.9043.259l.851-.5252c-.4552-.7374-1.4043-1.0215-2.1972-.6308zm.8922.2384.056.1013.8751-.4841-.056-.1012z" fill="#000"/><path d="m48.2949 21.582c0 8.2843-6.7157 15-15 15-8.2842 0-15-6.7157-15-15 0-8.2842 6.7158-14.99997 15-14.99997 8.2843 0 15 6.71577 15 14.99997z" stroke="#000" stroke-width="2"/></svg>