<svg fill="none" height="40" viewBox="0 0 66 40" width="66" xmlns="http://www.w3.org/2000/svg" xmlns:xlink="http://www.w3.org/1999/xlink"><filter id="a" color-interpolation-filters="sRGB" filterUnits="userSpaceOnUse" height="16.5327" width="21.8838" x="18.8555" y="11.3198"><feFlood flood-opacity="0" result="BackgroundImageFix"/><feBlend in="SourceGraphic" in2="BackgroundImageFix" mode="normal" result="shape"/><feGaussianBlur result="effect1_foregroundBlur_1703_64737" stdDeviation="2"/></filter><filter id="b" color-interpolation-filters="sRGB" filterUnits="userSpaceOnUse" height="7.19824" width="9.14062" x="39.8174" y="16.7222"><feFlood flood-opacity="0" result="BackgroundImageFix"/><feBlend in="SourceGraphic" in2="BackgroundImageFix" mode="normal" result="shape"/><feGaussianBlur result="effect1_foregroundBlur_1703_64737" stdDeviation=".5"/></filter><filter id="c" color-interpolation-filters="sRGB" filterUnits="userSpaceOnUse" height="7.19824" width="9.14062" x="39.8174" y="12.5659"><feFlood flood-opacity="0" result="BackgroundImageFix"/><feBlend in="SourceGraphic" in2="BackgroundImageFix" mode="normal" result="shape"/><feGaussianBlur result="effect1_foregroundBlur_1703_64737" stdDeviation=".5"/></filter><filter id="d" color-interpolation-filters="sRGB" filterUnits="userSpaceOnUse" height="7.19873" width="9.1416" x="40.1748" y="21.2129"><feFlood flood-opacity="0" result="BackgroundImageFix"/><feBlend in="SourceGraphic" in2="BackgroundImageFix" mode="normal" result="shape"/><feGaussianBlur result="effect1_foregroundBlur_1703_64737" stdDeviation=".5"/></filter><path d="m26.4635 25.5859c-3.0842 0-5.6666-2.6397-5.6666-6 0-3.3602 2.5824-6 5.6666-6h12.3334v12z" stroke="#000" stroke-width="2"/><g filter="url(#a)"><path d="m22.8555 19.5861c0 2.3563 2.0719 4.2664 4.6278 4.2664h9.2558v-8.5327h-9.2558c-2.5559 0-4.6278 1.9101-4.6278 4.2663z" fill="#ff6682"/></g><g filter="url(#b)"><path d="m41.7969 18.7422 5.1815 3.1579" stroke="#ff6682" stroke-linecap="round" stroke-width="2"/></g><g filter="url(#c)"><path d="m41.7969 14.5859 5.1815 3.1579" stroke="#ff6682" stroke-linecap="round" stroke-width="2"/></g><g filter="url(#d)"><path d="m42.1548 23.2332 5.1815 3.1579" stroke="#ff6682" stroke-linecap="round" stroke-width="2"/></g></svg>