<svg width="44" height="44" viewBox="0 0 44 44" fill="none" xmlns="http://www.w3.org/2000/svg">
<path fill-rule="evenodd" clip-rule="evenodd" d="M28.7042 5.66445C28.3094 5.55564 27.9004 5.5 27.4865 5.5H16.3411L16.0114 5.5118C14.1569 5.64482 12.5517 6.89181 11.9769 8.68303L5.86566 27.7295L5.72426 28.2223C5.55636 28.8844 5.47119 29.5656 5.47119 30.25C5.47119 34.8064 9.16484 38.5 13.7212 38.5H30.221L30.7425 38.4835C31.4362 38.4396 32.1223 38.3081 32.7843 38.0917C37.1151 36.676 39.4784 32.0176 38.0627 27.6867L35.208 18.9535C37.1916 17.641 38.4999 15.39 38.4999 12.8333C38.4999 8.78324 35.2167 5.5 31.1666 5.5C30.4189 5.5 29.6973 5.6119 29.0177 5.81987C28.9269 5.75031 28.8213 5.69672 28.7042 5.66445ZM31.1666 20.1667C31.9997 20.1667 32.8004 20.0277 33.5467 19.7718L36.3201 28.2563C37.4212 31.6248 35.5831 35.248 32.2147 36.3491C31.571 36.5595 30.8981 36.6667 30.221 36.6667H13.7212L13.3691 36.6572C9.98903 36.4744 7.30452 33.6757 7.30452 30.25C7.30452 29.5846 7.40803 28.9232 7.61134 28.2896L13.7226 9.24315L13.8113 9.00506C14.2396 7.99887 15.2314 7.33333 16.3411 7.33333H26.3159C24.7935 8.67706 23.8333 10.6431 23.8333 12.8333C23.8333 16.8834 27.1165 20.1667 31.1666 20.1667ZM22.9018 18.1686C22.8242 17.7409 22.45 17.4167 21.9999 17.4167C21.4937 17.4167 21.0833 17.8271 21.0833 18.3333V22L21.0981 22.1648C21.1757 22.5924 21.5499 22.9167 21.9999 22.9167C22.5062 22.9167 22.9166 22.5063 22.9166 22V18.3333L22.9018 18.1686ZM21.9999 9.16667C22.45 9.16667 22.8242 9.49094 22.9018 9.91856L22.9166 10.0833V11.9167C22.9166 12.4229 22.5062 12.8333 21.9999 12.8333C21.5499 12.8333 21.1757 12.5091 21.0981 12.0814L21.0833 11.9167V10.0833C21.0833 9.57707 21.4937 9.16667 21.9999 9.16667ZM22.9017 27.9905C22.8241 27.5629 22.4498 27.2386 21.9998 27.2386C21.4936 27.2386 21.0832 27.649 21.0832 28.1553V33.6553L21.0979 33.82C21.1756 34.2477 21.5498 34.5719 21.9998 34.5719C22.5061 34.5719 22.9165 34.1615 22.9165 33.6553V28.1553L22.9017 27.9905ZM36.6666 12.8333C36.6666 9.79577 34.2042 7.33333 31.1666 7.33333C28.129 7.33333 25.6666 9.79577 25.6666 12.8333C25.6666 15.8709 28.129 18.3333 31.1666 18.3333C34.2042 18.3333 36.6666 15.8709 36.6666 12.8333ZM34.8333 12.8333C34.8333 12.3271 34.4229 11.9167 33.9166 11.9167H28.4166L28.2518 11.9314C27.8242 12.0091 27.4999 12.3833 27.4999 12.8333C27.4999 13.3396 27.9104 13.75 28.4166 13.75H33.9166L34.0814 13.7352C34.509 13.6576 34.8333 13.2833 34.8333 12.8333Z" fill="#4FAEC1"/>
</svg>
