<svg width="19" height="16" viewBox="0 0 19 16" fill="none" xmlns="http://www.w3.org/2000/svg">
<path fill-rule="evenodd" clip-rule="evenodd" d="M7.74349 1.34455L5.631 7.92471C5.58618 8.06433 5.56335 8.21008 5.56335 8.35672C5.56335 9.09389 6.12775 9.69924 6.848 9.76423L6.97664 9.77C7.47403 9.77 7.87724 10.1732 7.87724 10.6706V14.354C7.87724 14.8994 8.22338 15.3846 8.73905 15.5622C9.40633 15.792 10.1336 15.4373 10.3633 14.77L12.5768 8.34217C12.6301 8.18722 12.6573 8.02448 12.6573 7.8606C12.6573 7.08672 12.063 6.45166 11.3059 6.38696L11.1783 6.38153C10.6134 6.38153 10.1555 5.92362 10.1555 5.35876V1.72224C10.1555 1.18535 9.8088 0.709912 9.29762 0.5458C8.64789 0.337211 7.95208 0.694826 7.74349 1.34455ZM9.03003 1.37929C9.17921 1.42719 9.28039 1.56593 9.28039 1.72261V5.35914C9.28039 6.40724 10.13 7.2569 11.1782 7.2569C11.5118 7.2569 11.7822 7.52735 11.7822 7.86098C11.7822 7.92791 11.7711 7.99437 11.7493 8.05765L9.53588 14.4855C9.46344 14.6959 9.23418 14.8077 9.02381 14.7353C8.86125 14.6793 8.75212 14.5263 8.75212 14.3544V10.671C8.75212 9.69034 7.95716 8.89538 6.97652 8.89538C6.67923 8.89538 6.43823 8.65438 6.43823 8.35709C6.43823 8.30124 6.44692 8.24573 6.464 8.19255L8.57649 1.61239C8.63736 1.42278 8.84042 1.31842 9.03003 1.37929ZM6.8668 2.31281C6.8668 2.07118 6.67092 1.87531 6.4293 1.87531H4.6875L4.50214 1.87959C2.41358 1.97638 0.75 3.70032 0.75 5.81281V10.1878L0.754286 10.3732C0.851072 12.4617 2.57501 14.1253 4.6875 14.1253H6.85397L6.93261 14.1183C7.1367 14.0812 7.29147 13.9026 7.29147 13.6878C7.29147 13.4462 7.09559 13.2503 6.85397 13.2503H4.6875L4.51947 13.2458C2.90624 13.1585 1.625 11.8228 1.625 10.1878V5.81281L1.62953 5.64477C1.71676 4.03155 3.05251 2.75031 4.6875 2.75031H6.4293L6.50794 2.74326C6.71203 2.70621 6.8668 2.52758 6.8668 2.31281ZM16.4955 5.62745C16.3987 3.53889 14.6747 1.87531 12.5623 1.87531H11.3021L11.2235 1.88235C11.0194 1.9194 10.8646 2.09803 10.8646 2.31281C10.8646 2.55443 11.0605 2.75031 11.3021 2.75031H12.5623L12.7303 2.75484C14.3435 2.84207 15.6248 4.17781 15.6248 5.81281V10.1878L15.6202 10.3558C15.533 11.9691 14.1972 13.2503 12.5623 13.2503H11.6654L11.5867 13.2574C11.3826 13.2944 11.2279 13.473 11.2279 13.6878C11.2279 13.9294 11.4238 14.1253 11.6654 14.1253H12.5623L12.7476 14.121C14.8362 14.0242 16.4998 12.3003 16.4998 10.1878V5.81281L16.4955 5.62745ZM17.8125 5.37531C18.0273 5.37531 18.2059 5.53007 18.243 5.73416L18.25 5.81281V10.1878C18.25 10.4294 18.0541 10.6253 17.8125 10.6253C17.5977 10.6253 17.4191 10.4705 17.382 10.2664L17.375 10.1878V5.81281C17.375 5.57118 17.5709 5.37531 17.8125 5.37531Z" fill="#2A3039"/>
</svg>
