<svg fill="none" height="40" viewBox="0 0 66 40" width="66" xmlns="http://www.w3.org/2000/svg" xmlns:xlink="http://www.w3.org/1999/xlink"><filter id="a" color-interpolation-filters="sRGB" filterUnits="userSpaceOnUse" height="29.3882" width="30.54" x="18.2969" y="6.6958"><feFlood flood-opacity="0" result="BackgroundImageFix"/><feBlend in="SourceGraphic" in2="BackgroundImageFix" mode="normal" result="shape"/><feGaussianBlur result="effect1_foregroundBlur_1703_64828" stdDeviation="2"/></filter><g filter="url(#a)"><path clip-rule="evenodd" d="m22.2969 32.0842v-9.8898c0-.5299.2103-1.0382.5847-1.4132l1.0253-1.0268v-6.5758l3.9963.0383.0288 2.4276 4.2582-4.3479c.764-.7802 2.0125-.8033 2.8049-.052l9.2183 8.7402c.3983.3777.6239.9025.6239 1.4514v10.648h-8.0502l-.0298-7.245c-.0072-1.765-1.4401-3.192-3.2051-3.192-1.7702 0-3.2052 1.435-3.2052 3.2052v7.2318z" fill="#ff6682" fill-rule="evenodd"/></g><path d="m19.3984 33v-12.1703c0-.5379.2167-1.0531.6011-1.4293l1.3989-1.3693v-7.9834l4.9643.0466.0357 2.9472 5.6386-5.6269c.7604-.75876 1.9843-.78141 2.7722-.05132l11.9486 11.07212c.4085.3785.6406.9102.6406 1.467v13.0976h-10l-.0357-8.0108c-.0097-2.1924-1.7897-3.9645-3.9821-3.9645-2.1993 0-3.9822 1.7829-3.9822 3.9822v7.9931z" style="fill-rule:evenodd;clip-rule:evenodd;stroke:#000;stroke-width:2;stroke-linecap:round;stroke-linejoin:round"/></svg>