<svg fill="none" height="40" viewBox="0 0 66 40" width="66" xmlns="http://www.w3.org/2000/svg" xmlns:xlink="http://www.w3.org/1999/xlink"><filter id="a" color-interpolation-filters="sRGB" filterUnits="userSpaceOnUse" height="24" width="24" x="21.3984" y="8.27295"><feFlood flood-opacity="0" result="BackgroundImageFix"/><feBlend in="SourceGraphic" in2="BackgroundImageFix" mode="normal" result="shape"/><feGaussianBlur result="effect1_foregroundBlur_1703_64784" stdDeviation="2"/></filter><g filter="url(#a)"><path d="m25.3984 12.2729h16v16h-16z" fill="#ff6682"/></g><path clip-rule="evenodd" d="m20.2705 7.87451c0-.55228.4477-1 1-1h7.2007c.5523 0 1 .44772 1 1 0 .55229-.4477 1-1 1h-6.2007v6.20069c0 .5523-.4477 1-1 1s-1-.4477-1-1zm16.8009 0c0-.55228.4477-1 1-1h7.2007c.5523 0 1 .44772 1 1v7.20069c0 .5523-.4477 1-1 1s-1-.4477-1-1v-6.20069h-6.2007c-.5523 0-1-.44771-1-1zm8.2007 15.80089c.5523 0 1 .4477 1 1v7.2007c0 .5523-.4477 1-1 1h-7.2007c-.5523 0-1-.4477-1-1s.4477-1 1-1h6.2007v-6.2007c0-.5523.4477-1 1-1zm-24.0016 0c.5523 0 1 .4477 1 1v6.2007h6.2007c.5523 0 1 .4477 1 1s-.4477 1-1 1h-7.2007c-.5523 0-1-.4477-1-1v-7.2007c0-.5523.4477-1 1-1z" fill="#000" fill-rule="evenodd"/><g stroke="#000" stroke-linecap="round" stroke-linejoin="round" stroke-width="2"><path d="m25.8711 12.4775h5.20069v5.20069h-5.20069z"/><path d="m25.8711 22.0723h5.20069v5.20069h-5.20069z"/><path d="m35.4717 22.0723h5.20069v5.20069h-5.20069z"/><path d="m35.4717 12.4775h5.20069v5.20069h-5.20069z"/></g></svg>