<svg fill="none" height="40" viewBox="0 0 66 40" width="66" xmlns="http://www.w3.org/2000/svg" xmlns:xlink="http://www.w3.org/1999/xlink"><filter id="a" color-interpolation-filters="sRGB" filterUnits="userSpaceOnUse" height="16.7603" width="42.2607" x="10.3125" y="5.54297"><feFlood flood-opacity="0" result="BackgroundImageFix"/><feBlend in="SourceGraphic" in2="BackgroundImageFix" mode="normal" result="shape"/><feGaussianBlur result="effect1_foregroundBlur_1703_64761" stdDeviation="2"/></filter><path d="m39.3879 14.5087c-.4539.382-.9127.7639-1.3472 1.12-.0643.0526-.0643.0526-.1286.1051-.8216.6708-1.4439 1.1548-1.7529 1.3567-1.1784.7699-1.8362.9801-3.9433 1.0207-.7389.0145-.7389.0145-1.5023.0294-.0283.0005-.0283.0005-.0565.0011-1.4468.0282-4.7162.0916-4.7587.0924l.0261 1.7659c.0422-.0008 3.3114-.0643 4.7584-.0925.0282-.0005.0282-.0005.0565-.0011.7635-.0149.7635-.0149 1.5022-.0293 2.3647-.0456 3.2724-.3357 4.6712-1.2496.3703-.2419 1.0169-.7448 1.8829-1.4518.0653-.0534.0653-.0534.1306-.1069.4404-.3608.9043-.747 1.363-1.1331.1605-.1351.3089-.2605.4417-.3732.1366-.116.1366-.116.1674-.1423l-.9094-1.4202c-.1188.1013-.3288.2794-.6011.5087z" fill="#000"/><g filter="url(#a)"><path d="m15.3846 10.3657c-.0948.0245.0294.0239-.0904.0219.0828.0018.1147-.84463.1147-.84463l-.1445.83233c.6038.124 1.2161.2299 1.8381.3185 4.2498.6059 7.9092.4504 14.7726-.3149 7.9536-.88686 10.6317-.956 13.6071.0751.1063.0367.4933.1658.5689.1916.2231.076.4005.1407.5686.2088.8094.3278 1.2992.7062 1.5356 1.2353l.0607.1127c-.0318-.0531-.0318-.0531-.0498-.09-.0212-.0481-.0439-.1154-.0439-.1154.2685.6703.2827 1.2783.0513 1.7906.0734-.1629.2252-.2568.3994-.239-7.3877-.7358-13.8166-.4244-18.6765 1.5665l-.109.0555c-.3339.2054-1.8663 1.2661-2.1918 1.4802-.7261.4775-1.352.8434-1.9386 1.1192-.9855.4632-1.7839.6287-2.3643.4803l.1367.0499c-3.598-1.7302-6.3825-3.5049-9.117-5.8928.0916.0787.1435.1962.1435.3257v-1.2564c0-.6513.3209-1.0729.7732-1.0885z" fill="#ff6682"/></g><path clip-rule="evenodd" d="m12.8984 12.7344v-1.2563c0-1.51301.9304-2.73516 2.2819-2.7818v.00089c.0169-.00179.0312-.00284.0455-.00335.0258-.00093.0516-.00013.0928.00114.026.00047.026.00047.112.0026l.1233.01439c.5747.11795 1.1582.21888 1.7516.30347 4.0937.5836 7.6635.43188 14.4111-.3205 8.2048-.91486 10.9711-.98628 14.2382.14593.0568.0196.2127.07189.3484.1174.0952.03191.1804.06048.2145.0721.247.08422.4487.15777.6463.23778 1.1409.46209 1.9345 1.07235 2.3839 2.06185.0012.0025.0025.0051.0038.0079h.0001c.0148.0337.0211.0479.0288.0685l-.0049-.0138c.4175 1.0257.4439 2.1537-.0029 3.1427-.2095.4646-.6702.7499-1.1432.7016-7.1374-.7109-13.3475-.4147-17.9237 1.4407-.2204.1414-.7724.5185-1.2656.8555-.3629.2479-.6939.474-.8377.5686-.7815.514-1.4654.9138-2.1268 1.2247-1.2643.5943-2.3673.823-3.3392.5744l-.1368-.0498c-3.715-1.7865-6.615-3.6348-9.4574-6.1169-.2791-.2396-.444-.6127-.444-.9997zm2.4521-2.3465c.0003-.0016-.0241-.0071.0341-.0222l-.074.0107c.0707-.0995.0983-.83343.0983-.83343l-.1445.83233c.0074.0016.0149.0031.0223.0046l-.0575.0083c-.4523.0156-.7732.4372-.7732 1.0885v1.0555c-.0478-.0414-.0957-.083-.1435-.1248.0916.0787.1435.1962.1435.3257v-.2009c2.6703 2.3092 5.4008 4.0442 8.901 5.7331-.0217-.0046-.0431-.0096-.0642-.015l.1367.0499c-.0242-.0117-.0483-.0233-.0725-.0349.5746.121 1.3505-.0489 2.3001-.4953.5866-.2758 1.2125-.6417 1.9386-1.1192.1226-.0807.4167-.2816.7534-.5116.5568-.3804 1.2304-.8406 1.4384-.9686l.109-.0555c4.7934-1.9637 11.113-2.2934 18.3736-1.5962-.0251.0922-.0572.1818-.0965.2687.0734-.1629.2252-.2568.3994-.239-.1011-.0101-.2021-.02-.3029-.0297.1143-.4201.081-.894-.1038-1.4063.0072.0147.0115.0235.0161.0321.0069.0131.0145.0258.0336.0577l-.0524-.0974c-.013-.0358-.0268-.0718-.0413-.108 0 0 .0191.0565.0386.103l-.0056-.0103c-.2364-.5291-.7262-.9075-1.5356-1.2353-.1681-.0681-.3455-.1328-.5686-.2088-.0295-.0101-.1064-.0359-.1955-.0658-.1394-.0467-.3086-.1034-.3734-.1258-2.9754-1.0311-5.6535-.96196-13.6071-.0751-6.8634.7653-10.5228.9208-14.7726.3149-.6004-.0855-1.1918-.1872-1.7752-.3056.0183.0003.0231.0004.0232-.0003zm-.0462-.0044c-.0059-.0012-.0118-.0024-.0176-.0036l.0239-.0035c-.0021.0029-.0042.0053-.0063.0071z" fill="#191433" fill-rule="evenodd"/><g stroke="#000" stroke-linecap="round" stroke-linejoin="round" stroke-width="2"><path d="m25.3984 19.5 5 12"/><path d="m33.3984 15.5 7 16"/></g></svg>