<svg width="18" height="15" viewBox="0 0 18 15" fill="none" xmlns="http://www.w3.org/2000/svg">
<path fill-rule="evenodd" clip-rule="evenodd" d="M4 0.101562C1.79086 0.101562 0 1.53425 0 3.30156V12.4016C0 13.5614 0.940203 14.5016 2.1 14.5016H15.8999C17.0597 14.5016 17.9999 13.5614 17.9999 12.4016L18 3.30156C18 1.53425 16.2091 0.101562 14 0.101562H4ZM3.99903 0.896484H13.999C15.5967 0.896484 16.9027 1.89562 16.9939 3.15547L16.999 3.29648V12.6026C16.999 13.184 16.5265 13.6548 15.9451 13.6526L2.04964 13.6C1.4715 13.5979 1.0039 13.1287 1.00361 12.5506L0.999035 3.29648C0.999035 2.01834 2.24795 0.973556 3.82276 0.900559L3.99903 0.896484ZM4.49976 3.10547C5.32818 3.10547 5.99976 3.77704 5.99976 4.60547C5.99976 4.98476 5.85898 5.33118 5.62682 5.59531L9.00088 8.70982C9.19484 8.88886 9.44911 8.98828 9.71307 8.98828H12.0573C12.2357 8.35923 12.8143 7.89844 13.5005 7.89844C14.3289 7.89844 15.0005 8.57001 15.0005 9.39844C15.0005 10.2269 14.3289 10.8984 13.5005 10.8984C12.8436 10.8984 12.2853 10.4762 12.0823 9.88828H9.83028C9.29837 9.88828 8.78627 9.68643 8.39742 9.3235L4.89357 6.05324C4.76807 6.08729 4.63603 6.10547 4.49976 6.10547C3.67133 6.10547 2.99976 5.43389 2.99976 4.60547C2.99976 3.77704 3.67133 3.10547 4.49976 3.10547ZM4.50049 3.85937C4.08628 3.85937 3.75049 4.19516 3.75049 4.60937C3.75049 5.02359 4.08628 5.35937 4.50049 5.35937C4.9147 5.35937 5.25049 5.02359 5.25049 4.60937C5.25049 4.19516 4.9147 3.85937 4.50049 3.85937ZM13.4995 8.65234C13.0853 8.65234 12.7495 8.98813 12.7495 9.40234C12.7495 9.81656 13.0853 10.1523 13.4995 10.1523C13.9137 10.1523 14.2495 9.81656 14.2495 9.40234C14.2495 8.98813 13.9137 8.65234 13.4995 8.65234Z" fill="#2A3039"/>
</svg>
