<svg fill="none" height="40" viewBox="0 0 66 40" width="66" xmlns="http://www.w3.org/2000/svg" xmlns:xlink="http://www.w3.org/1999/xlink"><filter id="a" color-interpolation-filters="sRGB" filterUnits="userSpaceOnUse" height="20" width="20" x="23.3984" y="10"><feFlood flood-opacity="0" result="BackgroundImageFix"/><feBlend in="SourceGraphic" in2="BackgroundImageFix" mode="normal" result="shape"/><feGaussianBlur result="effect1_foregroundBlur_1703_64796" stdDeviation="1"/></filter><g filter="url(#a)"><circle cx="33.3984" cy="20" fill="#ff6682" r="8"/></g><g fill="#000"><path clip-rule="evenodd" d="m34.1364 5.61519c-.0635-.34988-.3698-.61519-.738-.61519-.4142 0-.75.33579-.75.75v2.27306c-6.03.37185-10.8551 5.19694-11.2269 11.22694h-2.2731l-.1348.0121c-.3498.0635-.6152.3697-.6152.7379 0 .4142.3358.75.75.75h2.2731c.3718 6.03 5.1969 10.8551 11.2269 11.2269v2.2731l.0121.1348c.0635.3499.3697.6152.7379.6152.4143 0 .75-.3358.75-.75v-2.2731c6.03-.3718 10.8551-5.1969 11.227-11.2269h2.273l.1349-.0121c.3498-.0635.6151-.3697.6151-.7379 0-.4142-.3357-.75-.75-.75h-2.273c-.3719-6.03-5.197-10.85509-11.227-11.22694v-2.27306zm-8.988 15.13481h-2.2236c.3671 5.2012 4.5224 9.3566 9.7236 9.7236v-2.2236c0-.4142.3358-.75.75-.75.3682 0 .6745.2653.738.6152l.012.1348v2.2236c5.2013-.367 9.3566-4.5224 9.7237-9.7236h-2.2237c-.4142 0-.75-.3358-.75-.75 0-.3682.2653-.6744.6152-.7379l.1348-.0121h2.2237c-.3671-5.2012-4.5224-9.35655-9.7237-9.72363v2.22363c0 .4142-.3357.75-.75.75-.3682 0-.6744-.2653-.7379-.6152l-.0121-.1348v-2.22363c-5.2012.36708-9.3565 4.52243-9.7236 9.72363h2.2236c.4143 0 .75.3358.75.75 0 .3682-.2653.6744-.6151.7379zm8.25-5.25c2.4853 0 4.5 2.0147 4.5 4.5s-2.0147 4.5-4.5 4.5c-2.4852 0-4.5-2.0147-4.5-4.5s2.0148-4.5 4.5-4.5zm0 1.5c-1.6568 0-3 1.3431-3 3s1.3432 3 3 3c1.6569 0 3-1.3431 3-3s-1.3431-3-3-3z" fill-rule="evenodd"/><path d="m34.1364 5.61519.1992-.01786-.0008-.00898-.0017-.00888zm-1.488 2.40787.0123.19962.1877-.01158v-.18804zm-11.2269 11.22694v.2h.188l.0116-.1877zm-2.2731 0v-.2h-.0089l-.0089.0008zm-.1348.0121-.0178-.1992-.009.0008-.0089.0016zm2.4079 1.4879.1996-.0123-.0116-.1877h-.188zm11.2269 11.2269h.2v-.188l-.1877-.0116zm0 2.2731h-.2v.0089l.0008.009zm.0121.1348-.1992.0179.0008.009.0016.0088zm1.4879-2.4079-.0123-.1996-.1877.0116v.188zm11.227-11.2269v-.2h-.1881l-.0115.1877zm2.273 0v.2h.009l.0089-.0008zm.1349-.0121.0178.1992.009-.0008.0089-.0016zm-2.4079-1.4879-.1996.0123.0115.1877h.1881zm-11.227-11.22694h-.2v.18804l.1877.01158zm0-2.27306h.2v-.00894l-.0008-.00891zm-11.2236 15v-.2h-.2146l.0151.2141zm2.2236 0v.2h.009l.0089-.0008zm7.5 9.7236-.014.1995.214.0151v-.2146zm1.488-2.3584.1992-.0179-.0008-.009-.0017-.0088zm.012.1348h.2v-.0089l-.0008-.009zm0 2.2236h-.2v.2146l.2141-.0151zm9.7237-9.7236.1995.0141.0151-.2141h-.2146zm-2.3585-1.4879-.0178-.1992-.009.0008-.0089.0016zm.1348-.0121v-.2h-.0089l-.0089.0008zm2.2237 0v.2h.2146l-.0151-.2141zm-9.7237-9.72363.0141-.1995-.2141-.01511v.21461zm-1.4879 2.35843-.1992.0179.0008.009.0016.0088zm-.0121-.1348h-.2v.0089l.0008.009zm0-2.22363h.2v-.21461l-.214.01511zm-9.7236 9.72363-.1995-.0141-.0151.2141h.2146zm2.3585 1.4879.0178.1992.009-.0008.0089-.0016zm8.1151-15.5379c.2698 0 .4946.19446.5412.4509l.3935-.07143c-.0804-.4433-.4681-.77947-.9347-.77947zm-.55.55c0-.30376.2463-.55.55-.55v-.4c-.5246 0-.95.42533-.95.95zm0 2.27306v-2.27306h-.4v2.27306zm-11.2273 11.23924c.3657-5.9292 5.1104-10.67398 11.0396-11.03962l-.0246-.39924c-6.1307.37806-11.0362 5.28346-11.4142 11.41426zm-2.4727.1877h2.2731v-.4h-2.2731zm-.1169.0113.1348-.0121-.0357-.3984-.1348.0121zm-.4331.5387c0-.2698.1945-.4946.4509-.5411l-.0714-.3936c-.4433.0805-.7795.4681-.7795.9347zm.55.55c-.3037 0-.55-.2462-.55-.55h-.4c0 .5247.4254.95.95.95zm2.2731 0h-2.2731v.4h2.2731zm11.2392 11.2273c-5.9292-.3656-10.6739-5.1104-11.0396-11.0396l-.3992.0246c.378 6.1308 5.2835 11.0362 11.4142 11.4143zm.1877 2.4727v-2.2731h-.4v2.2731zm.0113.117-.0121-.1349-.3984.0358.0121.1348zm.5387.433c-.2698 0-.4945-.1945-.5411-.4509l-.3936.0714c.0805.4433.4682.7795.9347.7795zm.55-.55c0 .3038-.2462.55-.55.55v.4c.5247 0 .95-.4253.95-.95zm0-2.2731v2.2731h.4v-2.2731zm11.2274-11.2392c-.3657 5.9292-5.1104 10.674-11.0397 11.0396l.0246.3993c6.1308-.3781 11.0362-5.2835 11.4143-11.4143zm2.4726-.1877h-2.273v.4h2.273zm.117-.0113-.1348.0121.0357.3984.1348-.0121zm.433-.5387c0 .2698-.1944.4946-.4509.5411l.0715.3936c.4433-.0805.7794-.4681.7794-.9347zm-.55-.55c.3038 0 .55.2462.55.55h.4c0-.5247-.4253-.95-.95-.95zm-2.273 0h2.273v-.4h-2.273zm-11.2393-11.22732c5.9293.36564 10.674 5.11042 11.0397 11.03962l.3992-.0246c-.3781-6.1308-5.2835-11.0362-11.4143-11.41426zm-.1877-2.47268v2.27306h.4v-2.27306zm-.0112-.11696.012.13481.3984-.0357-.012-.13482zm-11.0124 15.31696h2.2236v-.4h-2.2236zm9.7377 9.3241c-5.1019-.36-9.1781-4.4363-9.5382-9.5382l-.399.0282c.3741 5.3006 4.6085 9.5349 9.9091 9.909zm-.2141-2.0241v2.2236h.4v-2.2236zm.95-.95c-.5246 0-.95.4253-.95.95h.4c0-.3038.2463-.55.55-.55zm.9347.7795c-.0804-.4433-.4681-.7795-.9347-.7795v.4c.2698 0 .4946.1945.5412.4509zm.0145.1526-.012-.1348-.3984.0357.012.1349zm.0008 2.2415v-2.2236h-.4v2.2236zm9.3242-9.7377c-.3601 5.1019-4.4364 9.1782-9.5382 9.5382l.0281.399c5.3006-.3741 9.535-4.6084 9.9091-9.909zm-2.0242.2141h2.2237v-.4h-2.2237zm-.95-.95c0 .5247.4254.95.95.95v-.4c-.3037 0-.55-.2462-.55-.55zm.7795-.9347c-.4433.0805-.7795.4681-.7795.9347h.4c0-.2698.1945-.4946.4509-.5411zm.1527-.0145-.1348.0121.0357.3984.1348-.0121zm2.2415-.0008h-2.2237v.4h2.2237zm-9.7377-9.32412c5.1018.36002 9.1781 4.43632 9.5382 9.53822l.399-.0282c-.3741-5.3006-4.6085-9.53494-9.9091-9.90903zm.214 2.02412v-2.22363h-.4v2.22363zm-.95.95c.5247 0 .95-.4253.95-.95h-.4c0 .3038-.2462.55-.55.55zm-.9347-.7795c.0805.4433.4682.7795.9347.7795v-.4c-.2698 0-.4945-.1945-.5411-.4509zm-.0145-.1526.0121.1348.3984-.0357-.0121-.1349zm-.0008-2.24153v2.22363h.4v-2.22363zm-9.3241 9.73773c.3601-5.1019 4.4363-9.1782 9.5382-9.53822l-.0281-.39901c-5.3006.37409-9.535 4.60843-9.9091 9.90903zm2.0241-.2141h-2.2236v.4h2.2236zm.95.95c0-.5247-.4253-.95-.95-.95v.4c.3038 0 .55.2462.55.55zm-.7794.9347c.4433-.0805.7794-.4681.7794-.9347h-.4c0 .2698-.1944.4946-.4509.5411zm-.1527.0145.1348-.0121-.0357-.3984-.1348.0121zm12.9321-.9492c0-2.5957-2.1042-4.7-4.7-4.7v.4c2.3749 0 4.3 1.9252 4.3 4.3zm-4.7 4.7c2.5958 0 4.7-2.1043 4.7-4.7h-.4c0 2.3748-1.9251 4.3-4.3 4.3zm-4.7-4.7c0 2.5957 2.1043 4.7 4.7 4.7v-.4c-2.3748 0-4.3-1.9252-4.3-4.3zm4.7-4.7c-2.5957 0-4.7 2.1043-4.7 4.7h.4c0-2.3748 1.9252-4.3 4.3-4.3zm-2.8 4.7c0-1.5464 1.2536-2.8 2.8-2.8v-.4c-1.7673 0-3.2 1.4327-3.2 3.2zm2.8 2.8c-1.5464 0-2.8-1.2536-2.8-2.8h-.4c0 1.7673 1.4327 3.2 3.2 3.2zm2.8-2.8c0 1.5464-1.2536 2.8-2.8 2.8v.4c1.7673 0 3.2-1.4327 3.2-3.2zm-2.8-2.8c1.5464 0 2.8 1.2536 2.8 2.8h.4c0-1.7673-1.4327-3.2-3.2-3.2z"/></g></svg>