<svg width="44" height="44" viewBox="0 0 44 44"  xmlns="http://www.w3.org/2000/svg">
<path fill-rule="evenodd" clip-rule="evenodd" d="M21.9999 3.66699C16.9373 3.66699 12.8333 7.77105 12.8333 12.8337V20.167H11.9166C9.38528 20.167 7.33325 22.219 7.33325 24.7503V35.7503C7.33325 38.2816 9.38528 40.3337 11.9166 40.3337H32.0833C34.6146 40.3337 36.6666 38.2816 36.6666 35.7503V24.7503C36.6666 22.219 34.6146 20.167 32.0833 20.167H31.1666V20.1668H29.3333V20.167H14.6666V12.8337C14.6666 8.78357 17.9498 5.50033 21.9999 5.50033L22.3659 5.5093C26.246 5.70001 29.3333 8.9063 29.3333 12.8337V14.6649L31.1666 12.8461V12.8337C31.1666 7.77105 27.0625 3.66699 21.9999 3.66699ZM12.8333 22.0003H11.9166C10.3978 22.0003 9.16659 23.2315 9.16659 24.7503V35.7503C9.16659 37.2691 10.3978 38.5003 11.9166 38.5003H32.0833C33.602 38.5003 34.8333 37.2691 34.8333 35.7503V24.7503C34.8333 23.2315 33.602 22.0003 32.0833 22.0003H31.1666H12.8333ZM22.9146 30.0062C23.4637 29.6895 23.8333 29.0964 23.8333 28.417C23.8333 27.4045 23.0124 26.5837 21.9999 26.5837C20.9874 26.5837 20.1666 27.4045 20.1666 28.417C20.1666 29.0887 20.5278 29.676 21.0666 29.9953L20.1397 33.917H23.8064L22.9146 30.0062Z" />
</svg>
