<svg width="86" height="86" viewBox="0 0 86 86" xmlns="http://www.w3.org/2000/svg">
<path fill-rule="evenodd" clip-rule="evenodd" d="M55.3173 21.388C54.9274 20.6864 54.1034 20.3177 53.3021 20.5254L49.8015 21.433L49.497 21.5418C48.726 21.8984 48.2961 22.7656 48.5168 23.617L48.6256 23.9215C48.9822 24.6925 49.8494 25.1224 50.7008 24.9017L52.6051 24.4062L55.6491 33.0756C55.5551 33.1718 55.4706 33.2802 55.3979 33.4002L48.0268 45.5643L47.6854 46.0861C46.0149 48.4545 43.2893 49.88 40.3654 49.88H39.9427L33.7696 32.2728H34.2006L34.5227 32.244C35.3585 32.0923 35.9923 31.3607 35.9923 30.4812C35.9923 29.4917 35.1901 28.6895 34.2006 28.6895H26.9276L26.6055 28.7184C25.7697 28.8701 25.1359 29.6016 25.1359 30.4812C25.1359 31.4707 25.9381 32.2728 26.9276 32.2728H29.9724L36.1455 49.88H32.0787C31.0884 43.9426 25.927 39.4168 19.7084 39.4168C12.7818 39.4168 7.16675 45.0319 7.16675 51.9584C7.16675 58.885 12.7818 64.5001 19.7084 64.5001C26.1257 64.5001 31.4172 59.6804 32.1607 53.4634H37.4018L38.9684 57.9315L39.1022 58.2259C39.5219 58.9644 40.4219 59.3205 41.2519 59.0295C42.1857 58.7021 42.6773 57.6797 42.3499 56.7459L41.1895 53.4363C45.2562 53.1691 48.9616 50.9361 51.0914 47.4213L57.1662 37.3963L58.7583 41.9305C55.7169 44.219 53.7501 47.859 53.7501 51.9584C53.7501 58.885 59.3652 64.5001 66.2917 64.5001C73.2183 64.5001 78.8334 58.885 78.8334 51.9584C78.8334 45.0318 73.2183 39.4167 66.2917 39.4167C64.7638 39.4167 63.2997 39.69 61.9456 40.1902L60.4311 35.8765L69.8847 35.8334C70.7037 35.8297 71.416 35.2709 71.6147 34.4763L73.4063 27.3096C73.689 26.1788 72.8338 25.0834 71.6682 25.0834H56.6419L55.4422 21.6663L55.3173 21.388ZM60.0299 45.5521L62.6371 52.9775L62.7711 53.2718C63.1911 54.0102 64.0913 54.3659 64.9212 54.0745C65.8548 53.7467 66.346 52.7242 66.0182 51.7905L63.1331 43.5728C64.1154 43.2026 65.1799 43.0001 66.2917 43.0001C71.2393 43.0001 75.2501 47.0109 75.2501 51.9584C75.2501 56.906 71.2393 60.9167 66.2917 60.9167C61.3442 60.9167 57.3334 56.906 57.3334 51.9584C57.3334 49.4479 58.3661 47.1786 60.0299 45.5521ZM28.4244 49.88H20.7267L20.4047 49.9089C19.5689 50.0606 18.9351 50.7921 18.9351 51.6717C18.9351 52.6612 19.7372 53.4634 20.7267 53.4634H28.5409C27.8252 57.6944 24.1431 60.9168 19.7084 60.9168C14.7609 60.9168 10.7501 56.906 10.7501 51.9584C10.7501 47.0109 14.7609 43.0001 19.7084 43.0001C23.9405 43.0001 27.4871 45.9347 28.4244 49.88ZM69.3707 28.6667L68.4713 32.2572L59.2765 32.2967L58.0438 28.6667H69.3707Z" />
</svg>
